<svg xmlns="http://www.w3.org/2000/svg" xmlns:xlink="http://www.w3.org/1999/xlink" width="200" height="200" viewBox="0 0 200 200">
  <defs>
    <polygon id="group-38-a" points="0 .133 199.867 .133 199.867 199.718 0 199.718"/>
  </defs>
  <g fill="none" fill-rule="evenodd">
    <path fill="#FFF" d="M99.9335028,37.0594358 C83.0778531,37.0594358 67.230678,43.6140197 55.3120339,55.5161354 C43.3933898,67.417969 36.8292655,83.2427927 36.8292655,100.074669 C36.8292655,116.906544 43.3933898,132.731086 55.3120339,144.633202 C67.230678,156.535035 83.0778531,163.089619 99.9335028,163.089619 C116.789153,163.089619 132.636328,156.535035 144.554972,144.633202 C156.473616,132.731086 163.03774,116.906544 163.03774,100.074669 C163.03774,83.2427927 156.473616,67.417969 144.554972,55.5161354 C132.636328,43.6140197 116.789153,37.0594358 99.9335028,37.0594358 M99.9335028,164.500056 C82.700452,164.500056 66.4990395,157.798787 54.3134463,145.630381 C42.1278531,133.461975 35.4168362,117.283413 35.4168362,100.074669 C35.4168362,82.8659238 42.1278531,66.6870804 54.3134463,54.5189563 C66.4990395,42.3505501 82.700452,35.6489986 99.9335028,35.6489986 C117.166554,35.6489986 133.367966,42.3505501 145.553559,54.5189563 C157.739153,66.6870804 164.450169,82.8659238 164.450169,100.074669 C164.450169,117.283413 157.739153,133.461975 145.553559,145.630381 C133.367966,157.798787 117.166554,164.500056 99.9335028,164.500056"/>
    <g transform="translate(0 .15)">
      <mask id="group-38-b" fill="#fff">
        <use xlink:href="#group-38-a"/>
      </mask>
      <path fill="#FFF" d="M193.161723,131.872581 C193.002119,132.338872 192.843927,132.805726 192.67726,133.269196 C187.832627,146.73323 180.030085,159.075402 169.598446,169.492045 C150.990254,188.073992 126.249294,198.30756 99.9334746,198.30756 C73.6176554,198.30756 48.8766949,188.073992 30.2685028,169.492045 C19.375565,158.614753 11.3529661,145.636474 6.56850282,131.474838 C6.41257062,131.013625 6.26087571,130.550719 6.11200565,130.086685 C3.02217514,120.466093 1.41257062,110.319972 1.41257062,99.9253315 C1.41257062,95.0212412 1.77019774,90.172158 2.47161017,85.4071368 C2.55635593,84.8322426 2.65127119,84.2598872 2.74590395,83.6875317 C3.32189266,80.204598 4.07867232,76.7682087 5.01963277,73.391622 C5.17923729,72.8189845 5.34618644,72.2486037 5.51624294,71.6793512 C6.62612994,67.9620028 7.95748588,64.320536 9.50070621,60.7687729 C9.7450565,60.2065726 9.99533898,59.6471932 10.2501412,59.0897884 C15.0769774,48.5323836 21.804661,38.8105219 30.2685028,30.3586178 C48.8766949,11.7766714 73.6176554,1.54310296 99.9334746,1.54310296 C126.249294,1.54310296 150.990254,11.7766714 169.598446,30.3586178 C178.059181,38.8071368 184.784887,48.5250494 189.611441,59.0779408 C189.867655,59.6378843 190.119068,60.1998025 190.364266,60.7642595 C191.913701,64.3295628 193.249576,67.9854161 194.362006,71.717433 C194.53178,72.2869676 194.699011,72.8570663 194.858616,73.4299859 C195.802684,76.8232158 196.560028,80.2770945 197.135452,83.7775176 C197.230085,84.3532581 197.324435,84.9289986 197.408898,85.5069958 C198.100706,90.240141 198.454661,95.0553738 198.454661,99.9253315 C198.454661,110.965388 196.639124,121.725331 193.161723,131.872581 M198.854379,85.672299 C198.771328,85.0911989 198.682062,84.5115092 198.588842,83.9326657 C198.02274,80.4178561 197.269633,76.9422567 196.328107,73.5132017 C196.169633,72.9363329 196.004661,72.3608745 195.835734,71.7865444 C194.769068,68.1620028 193.499576,64.5896474 192.013418,61.0813258 C191.970763,60.9806206 191.925,60.8813258 191.88178,60.7809027 C191.638559,60.2113681 191.390819,59.6440903 191.137429,59.0801975 C186.157768,47.9983921 179.256073,38.0079831 170.597316,29.3614386 C161.419633,20.1966996 150.732345,13.0014951 138.832345,7.97526093 C126.511723,2.77131171 113.424153,0.132665726 99.9334746,0.132665726 C86.4427966,0.132665726 73.355226,2.77131171 61.0346045,7.97526093 C49.1346045,13.0014951 38.4473164,20.1966996 29.2699153,29.3614386 C20.6128531,38.0062906 13.7125706,47.9935966 8.7329096,59.0725811 C8.48008475,59.6353456 8.2329096,60.2014951 7.98997175,60.7699013 C7.94533898,60.8742736 7.89788136,60.9769535 7.85353107,61.0813258 C6.37471751,64.5727221 5.11031073,68.1281523 4.04675141,71.7346403 C3.87867232,72.3050212 3.71398305,72.8762482 3.55607345,73.4491678 C2.61652542,76.862708 1.86398305,80.3227927 1.29618644,83.8220874 C1.2029661,84.3972638 1.11257062,84.9732863 1.02951977,85.5507193 C0.347881356,90.2793512 0.000141242938,95.0756841 0.000141242938,99.9253315 C0.000141242938,110.554669 1.65211864,120.931819 4.90607345,130.881608 C5.05748588,131.344231 5.21031073,131.806855 5.36850282,132.268068 C6.12048023,134.456502 6.94533898,136.62519 7.85353107,138.769337 C12.8868644,150.652553 20.0922316,161.324767 29.2699153,170.489224 C38.4473164,179.653963 49.1346045,186.84945 61.0346045,191.875402 C73.355226,197.079351 86.4427966,199.717997 99.9334746,199.717997 C113.424153,199.717997 126.511723,197.079351 138.832345,191.875402 C150.732345,186.84945 161.419633,179.653963 170.597316,170.489224 C179.774718,161.324767 186.980367,150.652553 192.013418,138.769337 C192.658616,137.246065 193.263983,135.710663 193.830367,134.164542 C193.999011,133.704175 194.157486,133.240705 194.319068,132.778082 C197.998446,122.253117 199.86709,111.231961 199.86709,99.9253315 C199.86709,95.1171509 199.524153,90.3614386 198.854379,85.672299" mask="url(#group-38-b)"/>
    </g>
    <path fill="#FFF" d="M72.0303107 170.881551C69.9805932 167.354612 64.4788983 167.163075 62.3661864 171.651368 60.1520621 176.354894 64.1130791 180.516812 68.1859605 179.513145L69.0393503 182.915684C67.0472599 183.496784 64.8777684 183.411594 62.9116667 182.488604 58.4430226 180.391848 56.6328531 174.791283 58.8803107 170.016389 61.1277684 165.240931 66.6014972 163.05842 71.0707062 165.155176 72.9472599 166.036135 74.364209 167.54615 75.2102542 169.3422L72.0303107 170.881551zM78.064435 177.920226C77.4121751 181.044908 79.2525706 184.068886 82.1771469 184.677348 85.1014407 185.285811 87.9986158 183.247729 88.6505932 180.122764 89.3028531 176.9978 87.4624576 173.974386 84.5378814 173.365642 81.6135876 172.756897 78.7166949 174.795261 78.064435 177.920226M92.1308192 180.846883C91.0528531 186.012186 86.234774 189.402031 81.4008757 188.396671 76.5666949 187.390465 73.505678 182.36141 74.584209 177.196107 75.6621751 172.030522 80.4802542 168.640677 85.314435 169.646601 90.1483333 170.652243 93.2090678 175.681298 92.1308192 180.846883"/>
    <polygon fill="#FFF" points="110.606 189.593 100.357 179.295 100.89 190.071 97.438 190.241 96.524 171.771 97.609 171.718 107.663 181.577 107.152 171.248 110.604 171.078 111.518 189.548"/>
    <polygon fill="#FFF" points="125.373 171.031 117.584 173.158 118.484 176.44 124.914 174.684 125.889 178.247 119.459 180.002 121.494 187.433 118.16 188.343 113.275 170.505 124.397 167.469"/>
    <path fill="#FFF" d="M133.600367 179.701185L143.828616 174.549704 145.494435 177.847588 135.266186 182.998505 133.600367 179.701185zM130.137938 172.847306L138.669011 168.551396 140.334831 171.848152 131.803757 176.144626 130.137938 172.847306zM138.885395 164.601044L128.591328 169.785529 126.925508 166.487927 137.219859 161.303724 138.885395 164.601044zM144.601723 160.537433L153.791836 172.147306 151.080819 174.288068 139.596638 159.780592 144.903418 155.591312C147.150028 153.817264 150.526864 154.346178 152.426864 156.746742 153.819802 158.505557 154.047203 160.781157 153.17404 162.580028L160.780819 166.663526 157.895226 168.941946 150.754548 165.129535 148.461045 162.232214 149.50709 161.406544C150.262175 160.810212 150.354548 159.694556 149.715847 158.887221 149.076864 158.080451 147.952288 157.892017 147.196921 158.488632L144.601723 160.537433zM162.338898 159.953963L169.716017 151.202482 172.545395 153.581326 165.168277 162.332807 162.338898 159.953963zM156.457825 155.009535L162.61065 147.710522 165.440311 150.089083 159.286921 157.388378 156.457825 155.009535zM161.255565 143.992609L153.830706 152.80079 151.001328 150.422228 158.426186 141.613766 161.255565 143.992609z"/>
    <polygon fill="#FFF" points="182.699 136.084 168.628 139.732 178.216 144.704 176.623 147.767 160.19 139.246 160.691 138.283 174.283 134.581 165.094 129.816 166.687 126.753 183.12 135.274"/>
    <path fill="#FFF" d="M174.958333 113.266291C171.908898 115.979408 172.823588 121.400846 177.650424 122.56756 182.708333 123.789845 185.997316 119.079831 184.196469 115.296474L187.363983 113.778279C188.33291 115.611283 188.68404 117.750353 188.173023 119.859238 187.010876 124.652186 181.878955 127.546685 176.744209 126.305783 171.609463 125.064598 168.371045 120.14725 169.532627 115.354302 170.020763 113.341608 171.21822 111.652186 172.811158 110.464316L174.958333 113.266291zM186.18178 107.166432L186.373588 95.7286319 190.07161 95.7906911 189.879802 107.228209 186.18178 107.166432zM178.494774 107.0378L178.654661 97.4981664 182.352966 97.5599436 182.193079 107.099577 178.494774 107.0378zM175.253814 95.4688293L175.061158 106.980254 171.363136 106.918477 171.555791 95.4067701 175.253814 95.4688293zM180.755791 84.9773766C180.706356 85.5641185 180.619068 86.6600282 180.102966 87.7618618 179.401271 89.3003667 178.142514 90.317574 176.417373 90.7203949 174.978107 91.0693371 173.623023 90.8744147 172.470763 90.1900705 170.829237 89.1968406 170.094492 87.4535402 169.928107 86.5816079 169.458051 84.111086 170.154944 82.5480395 170.77613 81.1502962L171.059746 80.5189845 174.484605 81.7009309 174.184605 82.3855571C173.639689 83.6182793 173.280085 84.41433 173.561723 85.891622 173.603249 86.1096756 173.946469 86.9232158 174.522458 87.2653879 174.705791 87.3810437 175.02387 87.4966996 175.61596 87.3587588 176.545621 87.1573484 176.949576 86.452976 177.06935 84.8242031 177.084322 84.620536 177.108898 84.4653879 177.13291 84.3102398 177.42048 82.5737094 177.985452 81.1618618 178.831497 80.0975458 179.703531 79.0281523 180.835734 78.3361918 182.133475 78.0899295 183.405226 77.8484626 184.825565 78.1057264 185.999294 78.7615797 187.382062 79.5280113 188.319915 80.7801975 188.610593 82.3060085 188.753531 83.0572073 188.895339 84.0845698 188.736864 85.3694781 188.508051 86.9937377 187.858051 88.5229337 186.756073 89.9370381L183.793927 87.9392948C185.503249 85.7579126 185.119915 83.7471932 184.97726 82.9962764 184.709746 81.5911989 183.246186 81.3926093 182.779237 81.4806206 181.793079 81.6682087 181.083192 82.8825952 180.770763 84.7737094L180.758616 84.8515656 180.755791 84.9773766zM130.972316 84.4503244L130.972316 84.5467983C130.875706 87.5403103 129.908757 90.2438364 128.264972 92.6576587L107.282203 71.8012412C109.409605 70.2562482 111.923446 69.3874189 114.534463 69.0977151 115.984746 69.0009591 117.435028 69.0009591 118.788983 69.2906629 119.755932 69.4838928 120.625989 69.7735966 121.592938 70.0633004 122.94661 70.642708 124.203672 71.4150635 125.364124 72.2841749 125.750847 72.5735966 126.137571 72.9600564 126.524294 73.3462341 126.911299 73.7324118 127.20113 74.1185896 127.588136 74.5047673 127.588136 74.6015233 127.684746 74.6015233 127.684746 74.6979972L127.877966 74.8912271C128.071469 75.1806488 128.264972 75.4703526 128.458192 75.7600564 128.555085 75.8568124 128.555085 75.9532863 128.651695 76.0497602L128.844915 76.339464C129.038418 76.6291678 129.135028 76.8223977 129.231921 77.1118195 129.328531 77.2085755 129.328531 77.3050494 129.328531 77.4015233L129.425141 77.5947532C129.521751 77.884457 129.715254 78.1741608 129.811864 78.4638646 129.811864 78.5603385 129.908757 78.6568124 129.908757 78.7532863L130.005367 78.9465162C130.101977 79.23622 130.19887 79.5259238 130.29548 79.8156276 130.29548 79.9121016 130.39209 80.0085755 130.39209 80.1053315L130.39209 80.2982793C130.488701 80.5879831 130.488701 80.8776869 130.585593 81.1673907 130.585593 81.2638646 130.585593 81.4570945 130.682203 81.5535684L130.682203 81.6500423C130.682203 81.9397461 130.778814 82.2294499 130.778814 82.6156276L130.778814 83.0985614 130.778814 83.1950353 130.778814 84.1606206C130.972316 84.3538505 130.972316 84.3538505 130.972316 84.4503244zM112.793785 98.5476446C112.697175 98.4511707 112.600565 98.2579408 112.503672 98.1614669L101.674011 87.5403103C101.577401 87.4435543 101.480508 87.4435543 101.480508 87.3470804 100.900565 84.8365021 100.997175 82.2294499 101.770621 79.6223977L101.770621 79.5259238C101.867514 79.1397461 101.964124 78.8500423 102.157345 78.4638646L102.254237 78.1741608C102.447458 77.7879831 102.54435 77.4015233 102.834463 77.0153456L102.931073 76.9188717C103.124294 76.6291678 103.317797 76.2429901 103.511299 75.9532863L103.60791 75.8568124 103.70452 75.7600564C103.80113 75.6635825 103.898023 75.4703526 103.994633 75.3738787L124.783898 96.1338223C121.109605 98.6444006 116.855085 99.416756 112.793785 98.5476446zM76.2435028 127.804626C75.9533898 127.997856 75.6632768 127.997856 75.4700565 127.804626L72.279096 124.618449C72.0855932 124.425219 72.0855932 124.039041 72.279096 123.845811L84.1723164 109.652017 90.4576271 115.928181 76.2435028 127.804626zM106.218644 102.603216L93.5516949 113.224654 86.7830508 106.465557 97.3228814 93.8164739 106.218644 102.603216zM133.873164 84.6435543L133.873164 84.3538505 133.873164 83.1950353 133.873164 82.6156276C133.873164 82.2294499 133.776554 81.8432722 133.776554 81.5535684L133.776554 81.4570945C133.776554 81.2638646 133.776554 81.0709168 133.679661 80.8776869 133.583051 80.4915092 133.486441 80.1053315 133.486441 79.8156276L133.486441 79.6223977C133.486441 79.4294499 133.389548 79.3326939 133.389548 79.1397461 133.292938 78.7532863 133.196328 78.4638646 133.002825 78.0774048L132.906215 77.884457C132.809605 77.6912271 132.809605 77.5947532 132.712712 77.4015233 132.616102 77.0153456 132.422599 76.7256417 132.229379 76.339464L132.132768 76.1462341C132.035876 75.9532863 132.035876 75.8568124 131.939266 75.7600564 131.745763 75.4703526 131.552542 75.1806488 131.455932 74.8912271L131.262429 74.6015233C131.165819 74.5047673 131.068927 74.3118195 131.068927 74.2153456 130.875706 73.8288858 130.585593 73.5391819 130.29548 73.2497602L130.19887 73.1530042C130.101977 73.0565303 130.005367 72.9600564 129.908757 72.8633004 129.522034 72.3806488 129.135028 71.8977151 128.651695 71.5115374 128.264972 71.1253597 127.781356 70.642708 127.298023 70.2562482 125.94435 69.0977151 124.397175 68.2286037 122.75339 67.5527221 121.689831 67.1665444 120.529379 66.7803667 119.465819 66.5871368 117.822034 66.297433 116.081356 66.2009591 114.34096 66.297433 110.569774 66.6836107 107.088983 68.2286037 104.284746 70.642708L103.994633 70.9321298C103.801412 71.1253597 103.60791 71.2218336 103.511299 71.4150635 103.317797 71.6080113 103.124294 71.8977151 102.834463 72.090945L102.737571 72.1874189C102.64096 72.2841749 102.447458 72.4771227 102.350847 72.6703526L102.157627 72.8633004C101.867514 73.2497602 101.480508 73.7324118 101.287288 74.1185896L100.997175 74.4082934C100.707062 74.7944711 100.513559 75.1806488 100.223729 75.6635825L100.126836 75.8568124C99.9336158 76.339464 99.740113 76.7256417 99.5466102 77.2085755L99.3533898 77.5947532C99.159887 78.0774048 99.0632768 78.4638646 98.869774 78.9465162L98.869774 79.0429901C97.9997175 82.0365021 97.9028249 85.029732 98.5799435 87.926488L69.9584746 121.91464C68.7980226 123.266403 68.8946328 125.29433 70.1516949 126.646093L70.2483051 126.742567C70.2483051 126.742567 70.1516949 126.742567 70.1516949 126.839041L66.5740113 130.508434C65.800565 131.28079 65.800565 132.536079 66.5740113 133.308434 66.9607345 133.694894 67.4443503 133.887842 67.9276836 133.887842 68.4112994 133.887842 68.8946328 133.694894 69.2813559 133.308434L72.8590395 129.735797C72.8590395 129.735797 72.8590395 129.639323 72.9559322 129.639323L73.2460452 129.929027C73.9228814 130.604908 74.7929379 130.991086 75.759887 130.991086 76.5336158 130.991086 77.3070621 130.701382 77.9838983 130.122257L112.213559 101.444401C113.470621 101.734104 114.727684 101.830578 115.984746 101.830578 120.142655 101.830578 124.397175 100.382341 127.684746 97.3891114 127.684746 97.3891114 127.781356 97.3891114 127.781356 97.2926375 128.071469 97.0994076 128.361582 96.8097038 128.555085 96.52 128.844915 96.2302962 129.038418 96.0373484 129.328531 95.7476446L129.328531 95.6508886C131.939266 92.6576587 133.486441 88.7953173 133.679661 84.7400282 133.776554 84.8365021 133.873164 84.7400282 133.873164 84.6435543z"/>
    <path fill="#FFF" d="M93.455,105.306798 L94.7120621,104.051509 C94.8086723,103.955035 94.9052825,103.955035 95.0021751,104.051509 L95.8722316,104.920621 C95.9691243,105.017094 95.9691243,105.113568 95.8722316,105.210324 L94.615452,106.465614 C94.5185593,106.562087 94.4219492,106.562087 94.325339,106.465614 L93.455,105.596502 C93.3583898,105.500028 93.3583898,105.403272 93.455,105.306798 M92.1013277,105.98268 L93.9383333,107.817377 C94.1318362,108.010324 94.615452,108.010324 94.8086723,107.817377 L99.7400282,102.892976 C99.9335311,102.699746 99.9335311,102.217094 99.7400282,102.023865 L97.9030226,100.189168 C97.7095198,99.99622 97.2261864,99.99622 97.0326836,100.189168 L92.1013277,105.113568 C91.9078249,105.403272 91.9078249,105.78945 92.1013277,105.98268"/>
    <polygon fill="#FFF" points="49.569 49.123 35.267 49.474 43.342 56.381 41.129 58.961 27.29 47.121 27.986 46.31 41.841 45.801 34.102 39.18 36.315 36.601 50.154 48.441"/>
    <path fill="#FFF" d="M41.5014124,27.6750635 C41.0392655,27.1137094 40.470339,27.1097602 40.0200565,27.4795769 C39.5319209,27.879859 39.4248588,28.4375458 39.8870056,28.999464 C40.299435,29.5010155 40.9511299,29.6048237 41.4389831,29.2045416 C41.8892655,28.834725 41.9138418,28.1763329 41.5014124,27.6750635 M38.9110169,29.8003103 C38.019774,28.7168124 38.1129944,27.2632158 39.1265537,26.431622 C40.1214689,25.6152609 41.5861582,25.7910014 42.4774011,26.8744993 C43.3683616,27.957433 43.2564972,29.4265444 42.2615819,30.2429055 C41.2480226,31.0744993 39.8016949,30.8835261 38.9110169,29.8003103"/>
    <polygon fill="#FFF" points="63.949 34.134 65.872 37.25 59.047 41.451 57.124 38.335 59.192 37.062 53.491 27.826 51.423 29.099 49.5 25.983 54.484 22.916 62.108 35.268"/>
  </g>
</svg>
