<svg xmlns="http://www.w3.org/2000/svg" xmlns:xlink="http://www.w3.org/1999/xlink" width="200" height="200" viewBox="0 0 200 200">
  <defs>
    <polygon id="group-44-a" points="0 .133 199.867 .133 199.867 199.718 0 199.718"/>
  </defs>
  <g fill="none" fill-rule="evenodd">
    <path fill="#FFF" d="M99.9335028,37.0594358 C83.0778531,37.0594358 67.230678,43.6140197 55.3120339,55.5161354 C43.3933898,67.417969 36.8292655,83.2427927 36.8292655,100.074669 C36.8292655,116.906544 43.3933898,132.731086 55.3120339,144.633202 C67.230678,156.535035 83.0778531,163.089619 99.9335028,163.089619 C116.789153,163.089619 132.636328,156.535035 144.554972,144.633202 C156.473616,132.731086 163.03774,116.906544 163.03774,100.074669 C163.03774,83.2427927 156.473616,67.417969 144.554972,55.5161354 C132.636328,43.6140197 116.789153,37.0594358 99.9335028,37.0594358 M99.9335028,164.500056 C82.700452,164.500056 66.4990395,157.798787 54.3134463,145.630381 C42.1278531,133.461975 35.4168362,117.283413 35.4168362,100.074669 C35.4168362,82.8659238 42.1278531,66.6870804 54.3134463,54.5189563 C66.4990395,42.3505501 82.700452,35.6489986 99.9335028,35.6489986 C117.166554,35.6489986 133.367966,42.3505501 145.553559,54.5189563 C157.739153,66.6870804 164.450169,82.8659238 164.450169,100.074669 C164.450169,117.283413 157.739153,133.461975 145.553559,145.630381 C133.367966,157.798787 117.166554,164.500056 99.9335028,164.500056"/>
    <g transform="translate(0 .15)">
      <mask id="group-44-b" fill="#fff">
        <use xlink:href="#group-44-a"/>
      </mask>
      <path fill="#FFF" d="M193.161723,131.872581 C193.002119,132.338872 192.843927,132.805726 192.67726,133.269196 C187.832627,146.73323 180.030085,159.075402 169.598446,169.492045 C150.990254,188.073992 126.249294,198.30756 99.9334746,198.30756 C73.6176554,198.30756 48.8766949,188.073992 30.2685028,169.492045 C19.375565,158.614753 11.3529661,145.636474 6.56850282,131.474838 C6.41257062,131.013625 6.26087571,130.550719 6.11200565,130.086685 C3.02217514,120.466093 1.41257062,110.319972 1.41257062,99.9253315 C1.41257062,95.0212412 1.77019774,90.172158 2.47161017,85.4071368 C2.55635593,84.8322426 2.65127119,84.2598872 2.74590395,83.6875317 C3.32189266,80.204598 4.07867232,76.7682087 5.01963277,73.391622 C5.17923729,72.8189845 5.34618644,72.2486037 5.51624294,71.6793512 C6.62612994,67.9620028 7.95748588,64.320536 9.50070621,60.7687729 C9.7450565,60.2065726 9.99533898,59.6471932 10.2501412,59.0897884 C15.0769774,48.5323836 21.804661,38.8105219 30.2685028,30.3586178 C48.8766949,11.7766714 73.6176554,1.54310296 99.9334746,1.54310296 C126.249294,1.54310296 150.990254,11.7766714 169.598446,30.3586178 C178.059181,38.8071368 184.784887,48.5250494 189.611441,59.0779408 C189.867655,59.6378843 190.119068,60.1998025 190.364266,60.7642595 C191.913701,64.3295628 193.249576,67.9854161 194.362006,71.717433 C194.53178,72.2869676 194.699011,72.8570663 194.858616,73.4299859 C195.802684,76.8232158 196.560028,80.2770945 197.135452,83.7775176 C197.230085,84.3532581 197.324435,84.9289986 197.408898,85.5069958 C198.100706,90.240141 198.454661,95.0553738 198.454661,99.9253315 C198.454661,110.965388 196.639124,121.725331 193.161723,131.872581 M198.854379,85.672299 C198.771328,85.0911989 198.682062,84.5115092 198.588842,83.9326657 C198.02274,80.4178561 197.269633,76.9422567 196.328107,73.5132017 C196.169633,72.9363329 196.004661,72.3608745 195.835734,71.7865444 C194.769068,68.1620028 193.499576,64.5896474 192.013418,61.0813258 C191.970763,60.9806206 191.925,60.8813258 191.88178,60.7809027 C191.638559,60.2113681 191.390819,59.6440903 191.137429,59.0801975 C186.157768,47.9983921 179.256073,38.0079831 170.597316,29.3614386 C161.419633,20.1966996 150.732345,13.0014951 138.832345,7.97526093 C126.511723,2.77131171 113.424153,0.132665726 99.9334746,0.132665726 C86.4427966,0.132665726 73.355226,2.77131171 61.0346045,7.97526093 C49.1346045,13.0014951 38.4473164,20.1966996 29.2699153,29.3614386 C20.6128531,38.0062906 13.7125706,47.9935966 8.7329096,59.0725811 C8.48008475,59.6353456 8.2329096,60.2014951 7.98997175,60.7699013 C7.94533898,60.8742736 7.89788136,60.9769535 7.85353107,61.0813258 C6.37471751,64.5727221 5.11031073,68.1281523 4.04675141,71.7346403 C3.87867232,72.3050212 3.71398305,72.8762482 3.55607345,73.4491678 C2.61652542,76.862708 1.86398305,80.3227927 1.29618644,83.8220874 C1.2029661,84.3972638 1.11257062,84.9732863 1.02951977,85.5507193 C0.347881356,90.2793512 0.000141242938,95.0756841 0.000141242938,99.9253315 C0.000141242938,110.554669 1.65211864,120.931819 4.90607345,130.881608 C5.05748588,131.344231 5.21031073,131.806855 5.36850282,132.268068 C6.12048023,134.456502 6.94533898,136.62519 7.85353107,138.769337 C12.8868644,150.652553 20.0922316,161.324767 29.2699153,170.489224 C38.4473164,179.653963 49.1346045,186.84945 61.0346045,191.875402 C73.355226,197.079351 86.4427966,199.717997 99.9334746,199.717997 C113.424153,199.717997 126.511723,197.079351 138.832345,191.875402 C150.732345,186.84945 161.419633,179.653963 170.597316,170.489224 C179.774718,161.324767 186.980367,150.652553 192.013418,138.769337 C192.658616,137.246065 193.263983,135.710663 193.830367,134.164542 C193.999011,133.704175 194.157486,133.240705 194.319068,132.778082 C197.998446,122.253117 199.86709,111.231961 199.86709,99.9253315 C199.86709,95.1171509 199.524153,90.3614386 198.854379,85.672299" mask="url(#group-44-b)"/>
    </g>
    <path fill="#FFF" d="M54.6170056 162.412609C53.5025989 158.436587 48.1582486 156.856333 44.9483616 160.721495 41.5850847 164.77086 44.4116384 169.852384 48.6588136 169.899774L48.6319774 173.451255C46.5319774 173.516135 44.4271751 172.883695 42.7342373 171.481439 38.8859322 168.294979 38.5325424 162.347447 41.9469492 158.235458 45.3610734 154.124316 51.28 153.370296 55.1288701 156.556756 56.7449718 157.895261 57.750904 159.734189 58.1243503 161.708801L54.6170056 162.412609zM58.7439548 170.83859C57.3114689 173.73591 58.3479096 177.165529 61.0600565 178.502341 63.7724859 179.838872 67.1287006 178.574556 68.560904 175.677236 69.9931073 172.779633 68.9569492 169.350578 66.2442373 168.013484 63.5323729 166.676671 60.1755932 167.940705 58.7439548 170.83859M71.7888701 177.268209C69.4216384 182.057489 63.8380226 184.160169 59.3558192 181.950578 54.8727684 179.740987 53.1481921 174.036897 55.5157062 169.247334 57.8832203 164.458054 63.4662712 162.355938 67.9490395 164.565247 72.4318079 166.774838 74.1561017 172.478928 71.7888701 177.268209"/>
    <polygon fill="#FFF" points="87.686 190.515 80.253 177.83 78.041 188.526 74.614 187.819 78.406 169.487 79.483 169.709 86.836 181.914 88.956 171.662 92.382 172.369 88.591 190.701"/>
    <path fill="#FFF" d="M101.12952 183.187616C100.551554 183.037828 99.4716102 182.762793 98.4591808 182.060113 97.0419492 181.097348 96.2411017 179.66914 96.1340395 177.881551 96.0320621 176.387898 96.4586158 175.071678 97.3402542 174.040649 98.6137006 172.575487 100.481215 172.141636 101.38065 172.125557 103.92952 172.079577 105.371893 173.042059 106.662288 173.900169L107.243927 174.290578 105.476695 177.500733 104.844209 177.084654C103.705508 176.330353 102.972175 175.836135 101.447881 175.863216 101.22274 175.867447 100.351554 176.069986 99.9108757 176.585642 99.7639831 176.748406 99.5939266 177.045162 99.6298023 177.658702 99.6721751 178.619774 100.306921 179.1422 101.913418 179.54079 102.114548 179.590437 102.265395 179.641777 102.416243 179.692271 104.101554 180.276192 105.41596 181.080705 106.334605 182.105811 107.253249 183.157997 107.750706 184.40426 107.775 185.739097 107.798164 187.047701 107.297881 188.418928 106.441949 189.47591 105.439124 190.722454 104.02726 191.442341 102.453249 191.470268 101.67839 191.48409 100.628107 191.449676 99.3710452 191.071678 97.7871469 190.565896 96.3707627 189.656446 95.1464689 188.316248L97.6498588 185.707221C99.5371469 187.783667 101.611158 187.74615 102.385734 187.732327 103.835169 187.706657 104.284887 186.28268 104.27613 185.802003 104.257768 184.787052 103.166243 183.872243 101.330367 183.237264L101.254661 183.212158 101.12952 183.187616zM112.593927 186.656135L123.930932 184.211848 124.721045 187.866573 113.383757 190.310296 112.593927 186.656135zM110.951554 179.060085L120.407486 177.021721 121.197599 180.676164 111.741384 182.714528 110.951554 179.060085zM121.62839 173.206488L110.21822 175.666573 109.428672 172.012412 120.838842 169.552327 121.62839 173.206488z"/>
    <polygon fill="#FFF" points="130.712 185.748 124.05 168.28 127.32 167.036 133.982 184.504"/>
    <polygon fill="#FFF" points="140.919 177.193 146.63 174.043 148.427 177.293 139.654 182.131 130.603 165.767 133.666 164.078"/>
    <path fill="#FFF" d="M160.032797,148.37103 C156.000311,149.283018 154.152571,154.533512 157.857373,157.927588 C161.739294,161.484429 166.962458,158.920536 167.222345,154.687814 L170.77291,154.892609 C170.733079,156.989647 169.994944,159.057348 168.507938,160.675402 C165.128559,164.352976 159.162458,164.407419 155.221215,160.796417 C151.280254,157.185416 150.822345,151.244937 154.201441,147.56708 C155.621215,146.022652 157.510198,145.111791 159.504266,144.838731 L160.032797,148.37103 Z"/>
    <polygon fill="#FFF" points="163.792 134.188 184.21 135.936 182.349 139.329 169.954 138.242 177.341 148.458 175.456 151.894 163.3 135.086"/>
    <path fill="#FFF" d="M172.533079 123.099972L186.970932 127.175289 186.019802 130.538054 167.978277 125.445247 169.840989 118.864711C170.629407 116.078533 173.713305 114.510973 176.698616 115.353568 178.886186 115.971058 180.425169 117.702228 180.777994 119.695458L189.443814 118.536079 188.430819 122.114922 180.308785 123.219859 176.70596 122.202652 177.072627 120.905896C177.337881 119.969083 176.750876 118.999549 175.747203 118.716051 174.743531 118.432835 173.709068 118.945106 173.444379 119.881636L172.533079 123.099972zM175.706893 108.055966L190.671864 109.132694 190.420452 112.618166 171.721017 111.272327 172.21339 104.451453C172.421299 101.563441 175.124407 99.4060367 178.218757 99.6286037 180.485989 99.7916502 182.343333 101.1767 183.092768 103.057094L191.345028 100.173032 191.077514 103.881918 183.346158 106.604062 179.611695 106.334951 179.708588 104.990804C179.778927 104.019577 179.008023 103.188547 177.96678 103.113794 176.926667 103.039041 176.017627 103.749055 175.947571 104.720282L175.706893 108.055966z"/>
    <polygon fill="#FFF" points="190.952 94.826 172.287 96.275 172.015 92.792 190.68 91.343"/>
    <path fill="#FFF" d="M190.049689 85.0848237L187.407316 73.808378 183.761554 74.66 186.403927 85.9364457 190.049689 85.0848237zM182.471723 86.8546403L180.268051 77.4495628 176.622571 78.3011848 178.82596 87.7059803 182.471723 86.8546403zM169.135847 77.9993512L171.795169 89.3482934 175.440932 88.4969535 172.78161 77.1477292 169.135847 77.9993512zM167.325678 88.6752327L164.535 86.379323 167.258164 81.5906065 168.719746 82.7869394 167.325678 88.6752327zM170.138305 70.5647673L183.763729 64.2959379 185.228136 67.4699859 168.202147 75.3029901 165.336328 69.0911425C164.123333 66.4618054 165.447345 63.2697038 168.264859 61.9729478 170.329266 61.0234415 172.625311 61.3410719 174.190847 62.6271086L180.023051 56.1238646 181.581243 59.5015797 176.126441 65.6113117 172.726158 67.1754866 172.161469 65.9515092C171.753277 65.0674471 170.676158 64.7111707 169.728983 65.1469958 168.781808 65.5825388 168.328983 66.6431876 168.736893 67.5269676L170.138305 70.5647673zM173.784124 52.9982228L166.91661 43.6678984 169.933277 41.4537941 176.801073 50.7841185 173.784124 52.9982228zM167.51322 57.6007616L161.784972 49.8188152 164.801921 47.6044288 170.529887 55.3866573 167.51322 57.6007616zM157.799661 50.2659238L164.711525 59.656897 161.694859 61.8712835 154.782429 52.4803103 157.799661 50.2659238z"/>
    <polygon fill="#FFF" points="49.569 49.123 35.267 49.474 43.342 56.381 41.129 58.961 27.29 47.121 27.986 46.31 41.841 45.801 34.102 39.18 36.315 36.601 50.153 48.441"/>
    <path fill="#FFF" d="M41.5012712 27.6753456C41.0391243 27.1137094 40.4701977 27.1100423 40.0199153 27.479859 39.5317797 27.879859 39.4247175 28.4378279 39.8868644 28.999464 40.2992938 29.5010155 40.9509887 29.6048237 41.4388418 29.2045416 41.8891243 28.834725 41.9137006 28.176615 41.5012712 27.6753456M38.9108757 29.8003103C38.0196328 28.7168124 38.1128531 27.2632158 39.1264124 26.431622 40.1213277 25.6152609 41.5860169 25.7910014 42.4772599 26.8744993 43.3682203 27.957433 43.2563559 29.4265444 42.2614407 30.2429055 41.2478814 31.0744993 39.8015537 30.8835261 38.9108757 29.8003103M57.7569209 33.2975458L60.5659605 31.6543865 57.1498588 25.8315374 57.7569209 33.2975458zM64.9266949 29.1034697L66.4114407 31.6340762 64.7764124 32.5909168 67.1283898 36.5996615 64.4029661 38.1937377 62.0509887 34.1849929 56.6637006 37.336756 54.9685028 34.4476164 54.1987288 23.1054443 57.9303672 20.9226516 63.2913842 30.0597461 64.9266949 29.1034697zM140.314746 92.1201693L128.594972 105.060931 123.274068 100.149224C121.607401 98.612976 118.859096 96.3723554 117.015593 95.0502116L109.417006 89.6087447C108.12887 88.6973202 106.551469 88.303244 104.992147 88.2976023 103.665028 88.3015515 102.328023 88.590409 101.174068 89.2764457L98.4285876 90.9241185C98.0074011 91.1768688 97.5110734 91.3060649 96.9952542 91.3069111 96.0732203 91.3100141 95.1506215 90.8803949 94.6362147 90.1811001L94.0314124 89.367842 94.029435 89.3658674C93.7076836 88.9325811 93.5576836 88.4462623 93.5554237 87.9543018 93.5593785 87.2104372 93.9031638 86.4882934 94.5687006 86.0191819L102.691582 80.3198872C103.394124 79.8121298 104.643559 79.4561354 105.830565 79.4648801 106.654859 79.4609309 107.442429 79.6265162 107.981695 79.8925247L114.594972 83.0913963C115.722373 83.6318759 116.994689 83.8530324 118.274915 83.8561354 119.919548 83.8479549 121.58226 83.4911142 122.952316 82.6510578L129.707684 78.4544429C130.138757 78.1856135 130.655989 78.0468265 131.195537 78.0468265 132.107401 78.0448519 133.021243 78.4575458 133.538757 79.1308886L140.464746 87.980536C140.863898 88.4874471 141.095254 89.2022567 141.095254 89.9433004 141.096384 90.7720733 140.803446 91.5875882 140.314746 92.1201693zM130.83678 112.243724C130.835932 112.850212 130.618418 113.44457 130.177458 113.916502L129.483107 114.660649C128.998362 115.178279 128.340734 115.440056 127.667288 115.441185 127.056554 115.440056 126.458531 115.225952 125.983955 114.787588L114.283107 103.982228 112.259944 106.145557 124.783955 117.731453C125.305424 118.21354 125.567571 118.868265 125.571525 119.536812 125.567571 120.145839 125.352034 120.738787 124.911921 121.211001L124.219831 121.955148C123.735085 122.472779 123.077458 122.733709 122.404011 122.735684 121.793277 122.733992 121.193277 122.518477 120.722373 122.083216L109.018701 111.277856 106.997514 113.441185 117.383955 123.03244C117.88452 123.511707 118.141017 124.149506 118.141017 124.803949 118.141017 125.411001 117.92548 126.005078 117.485367 126.476164L116.791017 127.22031C116.308249 127.737941 115.648644 127.999718 114.973503 128.001693 114.360508 127.999718 113.762768 127.784485 113.289887 127.348942L102.92435 117.792384 102.922373 117.792384 102.920395 117.790409 100.903164 119.957687 100.905141 119.959661 100.943842 119.996333 106.13565 124.7811C106.595819 125.253032 106.833955 125.85811 106.835932 126.484062 106.833955 127.088011 106.620395 127.679267 106.180282 128.150635L105.485932 128.895346C105.001186 129.413258 104.345819 129.673061 103.67435 129.675035 103.063333 129.673061 102.465311 129.458956 101.992712 129.021439L97.4723729 124.841749C97.8655932 124.071086 98.0850847 123.234979 98.0850847 122.395769 98.0870621 120.972355 97.5209605 119.537377 96.4017514 118.47701L95.6605085 117.774894C94.610791 116.779972 93.2489266 116.282934 91.9051412 116.284908 91.8006215 116.284908 91.6955367 116.308886 91.5932768 116.31481 91.5932768 116.289986 91.599209 116.264034 91.599209 116.239492 91.600904 114.816079 89.9155932 112.318477 89.9155932 112.318477L89.1766102 111.618336C88.3907345 110.874471 87.4322599 110.410437 86.4350847 110.223977 86.6407345 109.642595 86.7571186 109.037518 86.7571186 108.431594 86.7571186 107.008181 86.1927119 105.571791 85.0735028 104.512835L84.3342373 103.810437C83.2822599 102.814669 81.9209605 102.31763 80.5768927 102.318759 80.420113 102.318759 80.2650282 102.350635 80.109096 102.364457 80.0664407 100.997743 79.5150282 99.6318759 78.4424294 98.6143865L78.4424294 98.6132581 77.7054237 97.9142454C76.6534463 96.9173484 75.2918644 96.4203103 73.9477966 96.4214386 72.5144633 96.4203103 71.0712429 96.9816643 70.0037288 98.0947814L68.2477966 99.9246827 60.4684181 93.2990127C59.9093785 92.8208745 59.6302825 92.1602257 59.6280226 91.4818054 59.63 90.9133992 59.8237853 90.3571227 60.2367797 89.8950635L68.4452542 80.7153738C68.7709605 80.3503526 69.2528814 80.0200282 69.8170056 79.7906911 70.3814124 79.5616361 71.0218079 79.4358251 71.620678 79.4366714 72.1424294 79.4366714 72.6316949 79.5308886 73.0232203 79.6995769L77.5297175 81.6197461C78.8000565 82.1543018 80.2749153 82.3734838 81.7574011 82.3782793 83.2412994 82.3734838 84.7141808 82.1540197 85.9848023 81.6197461L90.489322 79.7004231C91.1836723 79.3980254 92.2314124 79.2104372 93.2732203 79.2143865 94.4254802 79.2073343 95.5797175 79.4454161 96.2489266 79.7867419 96.6740678 79.9977433 97.0774576 80.1983075 97.4517514 80.3856135L92.8579661 83.6104372C91.3816949 84.6471086 90.5862147 86.2953456 90.5881921 87.9588152 90.5862147 89.0598025 90.9359322 90.180536 91.6469492 91.1317348L91.6452542 91.1297602 92.2520339 91.9438646C93.4042938 93.4736248 95.200904 94.2600846 96.9966667 94.2637518 98.010791 94.2637518 99.0438418 94.0078984 99.9647458 93.4564175L102.711921 91.8090268C103.272373 91.4668547 104.118418 91.2504937 104.993277 91.2544429 106.021525 91.248519 107.057401 91.5520451 107.680282 92.0093089L115.280847 97.4504937C116.972373 98.6606488 119.727458 100.905219 121.254294 102.317913L130.051751 110.440339C130.572655 110.922426 130.834802 111.57433 130.83678 112.243724zM94.4316949 124.090832L90.2410169 128.458392C89.7582486 128.9622 89.1116384 129.214386 88.4480791 129.216361 87.8254802 129.215233 87.2184181 128.992102 86.7407345 128.540762L86.0017514 127.839492C85.4952542 127.359379 85.2407345 126.715656 85.2387571 126.056982 85.2407345 125.4378 85.4641808 124.83385 85.9184181 124.36079L90.1071186 119.993512C90.5918644 119.489704 91.2384746 119.236671 91.9020339 119.235543 92.5226554 119.236671 93.1316949 119.458956 93.6093785 119.911142L94.3506215 120.612412C94.8571186 121.092525 95.1093785 121.735402 95.1113559 122.393794 95.109096 123.012694 94.8856497 123.616925 94.4316949 124.090832zM81.3093785 124.850494C80.8266102 125.354866 80.1811299 125.60677 79.5175706 125.608745 78.8949718 125.607616 78.2876271 125.384485 77.8099435 124.933427L77.0689831 124.231876C76.5605085 123.750917 76.3062712 123.108322 76.3062712 122.449365 76.3062712 121.898166 76.4938418 121.363329 76.8534463 120.917913L83.759661 113.719887C84.2254802 113.300423 84.8093785 113.079267 85.4144633 113.079267 86.0370621 113.080395 86.6441243 113.302398 87.1218079 113.753738L87.8630508 114.455853C88.369548 114.935966 88.6237853 115.578843 88.6257627 116.237236 88.6237853 116.856417 88.3983616 117.460367 87.9463842 117.934274L81.3093785 124.850494zM73.1814124 120.467701C72.6977966 120.970663 72.0520339 121.222567 71.3887571 121.224542 70.7661582 121.223413 70.159096 121.000282 69.6814124 120.550071L68.9421469 119.848801 68.940452 119.847673C68.4336723 119.36756 68.179435 118.724118 68.179435 118.065162 68.179435 117.447391 68.4028814 116.844288 68.8565537 116.369252 68.8565537 116.369252 78.7735028 106.060649 78.8568362 105.961354 79.3308475 105.506065 79.9415819 105.271086 80.5723729 105.269958 81.1949718 105.271086 81.8020339 105.493089 82.2797175 105.944429L83.0187006 106.646827C83.5271751 107.126657 83.7797175 107.769535 83.7816949 108.429055 83.779435 109.046827 83.5562712 109.651058 83.1020339 110.126093L73.1814124 120.467701zM67.239887 112.73512C66.6172881 112.733145 66.0082486 112.51086 65.5325424 112.060649L64.7944068 111.361354C64.2836723 110.879267 64.0316949 110.2378 64.0297175 109.579126 64.0316949 108.961354 64.2531638 108.357969 64.709096 107.882934L72.1486441 100.130324C72.6333898 99.6253879 73.28 99.3726375 73.9435593 99.3717913 74.5641808 99.3729196 75.1712429 99.5960508 75.650904 100.047109L76.3859322 100.747532C76.3859322 100.747532 77.1466667 101.871086 77.1486441 102.530606 77.1466667 103.024542 76.9977966 103.505783 76.7088136 103.922426 76.6839548 103.946968 68.6791525 112.277856 68.6791525 112.277856 68.2540113 112.578279 67.7514689 112.732863 67.239887 112.73512zM144.064181 89.9421721C144.062203 88.6169252 143.671808 87.2730606 142.808814 86.1650212L135.882825 77.3156559C134.722655 75.8445698 132.957684 75.0956276 131.193842 75.0928068 130.143842 75.0928068 129.074915 75.361354 128.130565 75.9497884L121.377175 80.145275C120.667006 80.5974612 119.449492 80.9080395 118.27322 80.900141 117.359661 80.9040903 116.47661 80.7212976 115.893559 80.4338505L109.280282 77.2349788C108.213616 76.7221439 107.024633 76.5119887 105.82887 76.509732 104.111356 76.5179126 102.372373 76.9393512 100.974633 77.906347L100.202881 78.4471086C99.5862147 78.1396333 98.6435593 77.6713681 97.5757627 77.1407616 96.2955367 76.5139633 94.789887 76.261213 93.2689831 76.2561354 91.8952542 76.2600846 90.5215254 76.4713681 89.3155932 76.9802539L84.8110734 78.8995769C84.0780226 79.2169252 82.9119209 79.4242595 81.7537288 79.4191819 80.5955367 79.4242595 79.4316949 79.2169252 78.6986441 78.8995769L74.189887 76.9791255C73.3675706 76.629055 72.4884746 76.4792666 71.6172881 76.4784203 70.6141808 76.4792666 69.6170056 76.6767278 68.6901695 77.051622 67.7644633 77.4284908 66.9051412 77.9850494 66.2209605 78.7486601L58.0124859 87.9286319C57.1025989 88.9433004 56.6506215 90.2208745 56.6525989 91.4784203 56.6506215 92.9782793 57.2932768 94.4826516 58.5328249 95.5370945L66.189887 102.060649 62.5574011 105.84457C61.5559887 106.888011 61.0576836 108.241185 61.0576836 109.578843 61.0557062 111.002257 61.6218079 112.439492 62.7432768 113.497602L63.48 114.196897C64.1743503 114.854443 65.0088136 115.273061 65.8816949 115.496192 65.4438418 116.300423 65.2045763 117.182228 65.2062712 118.066008 65.2045763 119.490268 65.770678 120.926657 66.889887 121.985896L66.8881921 121.985049 67.6271751 122.687165C68.6791525 123.682934 70.0429944 124.178843 71.3864972 124.177997 72.1088136 124.179126 72.8316949 124.034133 73.5110734 123.750353 73.749774 124.716502 74.2421469 125.634979 75.0170056 126.36897L75.7559887 127.071086C76.8079661 128.066855 78.169548 128.563047 79.5155932 128.5622 80.5675706 128.563047 81.6243503 128.253597 82.5339548 127.652468 82.800339 128.507475 83.2562712 129.317913 83.950339 129.976305L84.6896045 130.678702C85.739322 131.674471 87.1031638 132.170381 88.4469492 132.169535 89.8783051 132.170663 91.3235028 131.609027 92.3910169 130.496192L95.6014689 127.14866 99.9630508 131.179408C101.006836 132.146403 102.346949 132.627645 103.669831 132.624824 105.122938 132.627927 106.58904 132.046544 107.658814 130.902962L108.355141 130.157969C108.955989 129.513399 109.348362 128.750353 109.575763 127.95402L111.265311 129.511425C112.311356 130.474471 113.649492 130.953456 114.970395 130.952327 116.42548 130.953456 117.895537 130.372073 118.966441 129.227645L119.658531 128.48378C120.458249 127.630748 120.908249 126.57433 121.047232 125.495346 121.492994 125.609309 121.944972 125.686601 122.400904 125.686601 123.855989 125.686601 125.321808 125.106347 126.393842 123.962764L127.088192 123.2189C128.058531 122.180254 128.541299 120.848237 128.539322 119.53512 128.539322 119.127504 128.480565 118.721862 128.390169 118.321016 129.596949 118.161354 130.767288 117.623695 131.657119 116.669394L132.353164 115.924683C133.323785 114.886037 133.804576 113.55402 133.804576 112.239774 133.806271 110.793794 133.222373 109.334556 132.070113 108.271368L130.768136 107.07024 142.520395 94.0947814C143.57548 92.9266573 144.062486 91.4228491 144.064181 89.9421721z"/>
  </g>
</svg>
