<svg xmlns="http://www.w3.org/2000/svg" width="1440" height="433" viewBox="0 0 1440 433">
  <path fill="none" stroke="#FFF" stroke-linecap="round" stroke-linejoin="round" stroke-width="5" d="M0,473.353906 C0,473.353906 19.7718666,435.577996 62.911146,407.696758 C106.050425,379.814308 150.986266,341.140647 185.137892,324.051833 C219.289518,306.961807 233.669278,302.465772 257.036691,281.778676 C280.404104,261.092792 278.606331,259.29365 304.669797,251.199332 C330.732051,243.103801 356.795517,237.707589 373.87133,226.014988 C390.947143,214.322386 404.428623,199.032715 404.428623,199.032715 C404.428623,199.032715 417.90889,163.956124 427.794823,154.062664 C437.680756,144.167991 444.870636,129.778497 464.642503,135.174709 C484.415582,140.570921 500.591902,145.068169 500.591902,145.068169 C500.591902,145.068169 505.085729,167.553194 513.173889,169.352336 C521.263262,171.151478 528.453142,169.352336 540.136848,195.435645 C551.819342,221.51774 557.212661,221.967829 574.288474,241.53031 C591.364288,261.092792 609.338381,261.991756 636.300128,275.483499 C663.261874,288.974029 674.945581,303.364737 719.882633,323.151656 C764.818473,342.938575 826.831339,359.128424 834.919499,380.714485 C843.007659,402.300546 899.628418,439.176279 912.210405,445.472668 C924.792392,451.767845 938.273871,473.353906 938.273871,473.353906 C951.765911,504.915694 973.752413,520.696589 1004.23338,520.696589 C1049.95483,520.696589 1027.46013,508.224188 1064.24334,508.224188 C1101.02656,508.224188 1099.42689,495.751787 1160.2141,508.224188 C1221.0013,520.696589 1298.58044,548.59895 1311.88386,548.59895 C1325.18727,548.59895 1309.11834,576.501312 1355.58087,548.59895 C1402.04341,520.696589 1404.24859,520.696589 1422.98363,520.696589 C1441.71867,520.696589 1422.62212,520.696589 1467.11445,520.696589 C1496.776,520.696589 1533.07119,504.915694 1576,473.353906" transform="translate(-93 -131)"/>
</svg>
