<svg xmlns="http://www.w3.org/2000/svg" xmlns:xlink="http://www.w3.org/1999/xlink" width="606" height="277" viewBox="0 0 606 277">
  <defs>
    <polygon id="logo-big-a" points=".681 0 428.104 0 428.104 423 .681 423"/>
  </defs>
  <g fill="none" fill-rule="evenodd" transform="translate(1 -146)">
    <path fill="#1EC696" d="M68.6191341,420.731155 L12.5417164,420.731155 C5.65902214,420.731155 0.082019753,415.208977 0.082019753,408.397518 L0.082019753,14.4019911 C0.082019753,7.59053219 5.65902214,2.06835411 12.5417164,2.06835411 L68.6191341,2.06835411 C75.5018284,2.06835411 81.0817583,7.59053219 81.0817583,14.4019911 L81.0817583,408.397518 C81.0817583,415.208977 75.5018284,420.731155 68.6191341,420.731155"/>
    <path stroke="#1EC696" stroke-linecap="round" stroke-linejoin="round" stroke-width=".742" d="M68.6191341,420.731155 L12.5417164,420.731155 C5.65902214,420.731155 0.082019753,415.208977 0.082019753,408.397518 L0.082019753,14.4019911 C0.082019753,7.59053219 5.65902214,2.06835411 12.5417164,2.06835411 L68.6191341,2.06835411 C75.5018284,2.06835411 81.0817583,7.59053219 81.0817583,14.4019911 L81.0817583,408.397518 C81.0817583,415.208977 75.5018284,420.731155 68.6191341,420.731155 Z"/>
    <g transform="translate(176.659)">
      <mask id="logo-big-b" fill="#fff">
        <use xlink:href="#logo-big-a"/>
      </mask>
      <path fill="#1EC696" d="M375.528796,0 L53.2571022,0 C24.2215591,0 0.681046656,23.2939726 0.681046656,52.029 L0.681046656,370.971 C0.681046656,399.706027 24.2215591,423 53.2571022,423 L127.344871,423 C123.351679,421.644082 120.711019,418.002226 120.711019,413.12324 L120.711019,356.363014 L106.892935,356.363014 C87.9428367,356.363014 73.8700543,341.621753 73.8700543,322.867788 L73.8700543,99.9323014 C73.8700543,81.1783356 87.9428367,66.6369863 106.892935,66.6369863 L323.986169,66.6369863 C342.936267,66.6369863 357.843404,81.1783356 357.843404,99.9323014 L357.843404,322.867788 C357.843404,341.621753 342.936267,356.363014 323.986169,356.363014 L214.937475,356.363014 L137.52107,420.893692 C136.467149,421.765767 135.3254,422.597281 134.154376,423 L375.528796,423 C404.564339,423 428.104851,399.706027 428.104851,370.971 L428.104851,52.029 C428.104851,23.2939726 404.564339,0 375.528796,0" mask="url(#logo-big-b)"/>
    </g>
  </g>
</svg>
