<svg xmlns="http://www.w3.org/2000/svg" xmlns:xlink="http://www.w3.org/1999/xlink" width="243" height="287" viewBox="0 0 243 287">
  <defs>
    <polygon id="logo-whuite-footer-a" points="0 287 242.67 287 242.67 .004 0 .004"/>
  </defs>
  <g fill="none" fill-rule="evenodd">
    <polygon fill="#FFF" points="0 165 0 219 29 219 29 208.277 10.124 208.277 10.124 165"/>
    <path fill="#FFF" d="M41 219L74.7817856 219 74.7817856 208.215557 41 208.215557 41 219zM41 196.583012L69.1750292 196.583012 69.1750292 185.798569 41 185.798569 41 196.583012zM41 175.784443L75 175.784443 75 165 41 165 41 175.784443zM129.040483 186.507834C131.79084 186.507834 134.107328 184.104945 134.107328 181.081766 134.107328 178.058587 131.79084 175.578268 129.040483 175.578268L122.743504 175.578268 122.743504 186.507834 129.040483 186.507834zM129.040483 164.725291C137.436175 164.725291 144.240175 172.089661 144.240175 181.081766 144.240175 190.073872 137.436175 197.359969 129.040483 197.359969L122.743504 197.359969 122.743504 219.06508 112.610656 219.06508 112.610656 164.725291 129.040483 164.725291zM194.034407 198.988294C194.034407 210.615581 185.204006 219.995684 174.419514 219.995684 163.562711 219.995684 154.805462 210.615581 154.733151 199.065725L154.733151 164.72588 164.865999 164.72588 164.865999 198.988294C164.865999 201.701748 165.879199 204.259499 167.687826 206.197801 169.498134 208.135262 171.886092 209.142707 174.419514 209.142707 176.952096 209.142707 179.268583 208.135262 181.078891 206.197801 182.887518 204.259499 183.828407 201.779179 183.900718 199.065725L183.828407 199.065725 183.828407 164.72588 193.962096 164.72588 193.962096 198.988294 194.034407 198.988294z"/>
    <polygon fill="#FFF" points="242.669 164.725 226.167 199.144 226.167 219.065 216.034 219.065 216.034 199.144 199.46 164.725 210.678 164.725 221.1 185.191 231.451 164.725"/>
    <path fill="#FFF" d="M76.9683581,275.198577 C85.3640502,275.198577 92.1672093,267.834207 92.1672093,258.842943 C92.1672093,249.850838 85.3640502,242.563899 76.9683581,242.563899 L72.7700917,242.563899 L72.7700917,275.198577 L76.9683581,275.198577 Z M76.9683581,231.710923 C80.3695173,231.710923 83.6992059,232.408644 86.8111194,233.804087 C89.8507215,235.19953 92.5296073,237.137832 94.8452543,239.61731 C97.2340536,242.175902 99.0435208,245.044219 100.273656,248.299691 C101.649254,251.632594 102.300057,255.198633 102.300057,258.842943 C102.300057,262.563844 101.649254,266.12904 100.273656,269.462785 C99.0435208,272.718257 97.2340536,275.586574 94.8452543,278.066894 C92.5296073,280.547213 89.8507215,282.562946 86.8111194,283.880958 C83.6992059,285.353832 80.3695173,286.050712 76.9683581,286.050712 L66.7623581,286.050712 L66.7623581,285.974122 L62.6372439,285.974122 L62.6372439,231.710923 L76.9683581,231.710923 Z"/>
    <mask id="logo-whuite-footer-b" fill="#fff">
      <use xlink:href="#logo-whuite-footer-a"/>
    </mask>
    <path fill="#FFF" d="M113.877872,286.050628 L147.461481,286.050628 L147.461481,275.198493 L113.877872,275.198493 L113.877872,286.050628 Z M113.877872,263.493774 L141.887616,263.493774 L141.887616,252.641639 L113.877872,252.641639 L113.877872,263.493774 Z M113.878713,242.563815 L147.679256,242.563815 L147.679256,231.71168 L113.878713,231.71168 L113.878713,242.563815 Z" mask="url(#logo-whuite-footer-b)"/>
    <polygon fill="#FFF" points="179.666 286.051 156.723 231.711 167.94 231.711 181.186 262.563 194.358 231.711 205.578 231.711 182.705 286.051" mask="url(#logo-whuite-footer-b)"/>
    <path fill="#FFF" d="M55.5281907 122.224884L39.4220834 122.224884C37.445291 122.224884 35.843509 120.620713 35.843509 118.642013L35.843509 4.18792757C35.843509 2.20922669 37.445291.605056598 39.4220834.605056598L55.5281907.605056598C57.504983.605056598 59.1076059 2.20922669 59.1076059 4.18792757L59.1076059 118.642013C59.1076059 120.620713 57.504983 122.224884 55.5281907 122.224884M194.414799.00420821114L101.854501.00420821114C93.5151446.00420821114 86.754027 6.77101173 86.754027 15.1184194L86.754027 107.769762C86.754027 116.11717 93.5151446 122.883974 101.854501 122.883974L123.133397 122.883974C121.986504 122.490085 121.228075 121.432141 121.228075 120.014815L121.228075 103.526202 117.259356 103.526202C111.81666 103.526202 107.774788 99.2439267 107.774788 93.7959765L107.774788 29.034132C107.774788 23.5861818 111.81666 19.3619795 117.259356 19.3619795L179.611138 19.3619795C185.053833 19.3619795 189.335342 23.5861818 189.335342 29.034132L189.335342 93.7959765C189.335342 99.2439267 185.053833 103.526202 179.611138 103.526202L148.291044 103.526202 126.056124 122.2721C125.753425 122.525434 125.425501 122.766985 125.089169 122.883974L194.414799 122.883974C202.754155 122.883974 209.515273 116.11717 209.515273 107.769762L209.515273 15.1184194C209.515273 6.77101173 202.754155.00420821114 194.414799.00420821114M47.4608436 281.314384C47.4608436 285.15721 44.3484949 288.271581 40.5103571 288.271581 36.6712372 288.271581 33.5588886 285.15721 33.5588886 281.314384 33.5588886 277.471558 36.6712372 274.357187 40.5103571 274.357187 44.3484949 274.357187 47.4608436 277.471558 47.4608436 281.314384" mask="url(#logo-whuite-footer-b)"/>
  </g>
</svg>
