<svg xmlns="http://www.w3.org/2000/svg" width="24" height="28" viewBox="0 0 24 28">
  <g fill="none" fill-rule="evenodd" stroke="#FFF" stroke-linecap="round" stroke-linejoin="round" stroke-width="2" transform="translate(1 1)">
    <path d="M17.1207235,9.641645 C17.1207235,13.171795 14.2717235,16.033095 10.7581941,16.033095 C7.24401765,16.033095 4.39501765,13.171795 4.39501765,9.641645 L4.39501765,6.391645 C4.39501765,2.861495 7.24401765,0.000195 10.7581941,0.000195 C14.2717235,0.000195 17.1207235,2.861495 17.1207235,6.391645 L17.1207235,9.641645 Z"/>
    <path d="M16.1793176,13.8125 C16.1793176,13.8125 21.6877294,15.7625 21.7576118,19.74375 C21.8274941,23.725 14.9939059,25.43125 11.6473176,25.5125 L10.1112,25.5125 C6.76396471,25.43125 -0.0689764706,23.725 0.000258823529,19.74375 C0.0701411765,15.7625 5.57855294,13.8125 5.57855294,13.8125"/>
  </g>
</svg>
