<svg xmlns="http://www.w3.org/2000/svg" xmlns:xlink="http://www.w3.org/1999/xlink" width="200" height="200" viewBox="0 0 200 200">
  <defs>
    <polygon id="group-36-a" points="0 .133 199.867 .133 199.867 199.718 0 199.718"/>
  </defs>
  <g fill="none" fill-rule="evenodd">
    <path fill="#FFF" d="M99.9335028,37.0594358 C83.0778531,37.0594358 67.230678,43.6140197 55.3120339,55.5161354 C43.3933898,67.417969 36.8292655,83.2427927 36.8292655,100.074669 C36.8292655,116.906544 43.3933898,132.731086 55.3120339,144.633202 C67.230678,156.535035 83.0778531,163.089619 99.9335028,163.089619 C116.789153,163.089619 132.636328,156.535035 144.554972,144.633202 C156.473616,132.731086 163.03774,116.906544 163.03774,100.074669 C163.03774,83.2427927 156.473616,67.417969 144.554972,55.5161354 C132.636328,43.6140197 116.789153,37.0594358 99.9335028,37.0594358 M99.9335028,164.500056 C82.700452,164.500056 66.4990395,157.798787 54.3134463,145.630381 C42.1278531,133.461975 35.4168362,117.283413 35.4168362,100.074669 C35.4168362,82.8659238 42.1278531,66.6870804 54.3134463,54.5189563 C66.4990395,42.3505501 82.700452,35.6489986 99.9335028,35.6489986 C117.166554,35.6489986 133.367966,42.3505501 145.553559,54.5189563 C157.739153,66.6870804 164.450169,82.8659238 164.450169,100.074669 C164.450169,117.283413 157.739153,133.461975 145.553559,145.630381 C133.367966,157.798787 117.166554,164.500056 99.9335028,164.500056"/>
    <g transform="translate(0 .15)">
      <mask id="group-36-b" fill="#fff">
        <use xlink:href="#group-36-a"/>
      </mask>
      <path fill="#FFF" d="M193.161723,131.872581 C193.002119,132.338872 192.843927,132.805726 192.67726,133.269196 C187.832627,146.73323 180.030085,159.075402 169.598446,169.492045 C150.990254,188.073992 126.249294,198.30756 99.9334746,198.30756 C73.6176554,198.30756 48.8766949,188.073992 30.2685028,169.492045 C19.375565,158.614753 11.3529661,145.636474 6.56850282,131.474838 C6.41257062,131.013625 6.26087571,130.550719 6.11200565,130.086685 C3.02217514,120.466093 1.41257062,110.319972 1.41257062,99.9253315 C1.41257062,95.0212412 1.77019774,90.172158 2.47161017,85.4071368 C2.55635593,84.8322426 2.65127119,84.2598872 2.74590395,83.6875317 C3.32189266,80.204598 4.07867232,76.7682087 5.01963277,73.391622 C5.17923729,72.8189845 5.34618644,72.2486037 5.51624294,71.6793512 C6.62612994,67.9620028 7.95748588,64.320536 9.50070621,60.7687729 C9.7450565,60.2065726 9.99533898,59.6471932 10.2501412,59.0897884 C15.0769774,48.5323836 21.804661,38.8105219 30.2685028,30.3586178 C48.8766949,11.7766714 73.6176554,1.54310296 99.9334746,1.54310296 C126.249294,1.54310296 150.990254,11.7766714 169.598446,30.3586178 C178.059181,38.8071368 184.784887,48.5250494 189.611441,59.0779408 C189.867655,59.6378843 190.119068,60.1998025 190.364266,60.7642595 C191.913701,64.3295628 193.249576,67.9854161 194.362006,71.717433 C194.53178,72.2869676 194.699011,72.8570663 194.858616,73.4299859 C195.802684,76.8232158 196.560028,80.2770945 197.135452,83.7775176 C197.230085,84.3532581 197.324435,84.9289986 197.408898,85.5069958 C198.100706,90.240141 198.454661,95.0553738 198.454661,99.9253315 C198.454661,110.965388 196.639124,121.725331 193.161723,131.872581 M198.854379,85.672299 C198.771328,85.0911989 198.682062,84.5115092 198.588842,83.9326657 C198.02274,80.4178561 197.269633,76.9422567 196.328107,73.5132017 C196.169633,72.9363329 196.004661,72.3608745 195.835734,71.7865444 C194.769068,68.1620028 193.499576,64.5896474 192.013418,61.0813258 C191.970763,60.9806206 191.925,60.8813258 191.88178,60.7809027 C191.638559,60.2113681 191.390819,59.6440903 191.137429,59.0801975 C186.157768,47.9983921 179.256073,38.0079831 170.597316,29.3614386 C161.419633,20.1966996 150.732345,13.0014951 138.832345,7.97526093 C126.511723,2.77131171 113.424153,0.132665726 99.9334746,0.132665726 C86.4427966,0.132665726 73.355226,2.77131171 61.0346045,7.97526093 C49.1346045,13.0014951 38.4473164,20.1966996 29.2699153,29.3614386 C20.6128531,38.0062906 13.7125706,47.9935966 8.7329096,59.0725811 C8.48008475,59.6353456 8.2329096,60.2014951 7.98997175,60.7699013 C7.94533898,60.8742736 7.89788136,60.9769535 7.85353107,61.0813258 C6.37471751,64.5727221 5.11031073,68.1281523 4.04675141,71.7346403 C3.87867232,72.3050212 3.71398305,72.8762482 3.55607345,73.4491678 C2.61652542,76.862708 1.86398305,80.3227927 1.29618644,83.8220874 C1.2029661,84.3972638 1.11257062,84.9732863 1.02951977,85.5507193 C0.347881356,90.2793512 0.000141242938,95.0756841 0.000141242938,99.9253315 C0.000141242938,110.554669 1.65211864,120.931819 4.90607345,130.881608 C5.05748588,131.344231 5.21031073,131.806855 5.36850282,132.268068 C6.12048023,134.456502 6.94533898,136.62519 7.85353107,138.769337 C12.8868644,150.652553 20.0922316,161.324767 29.2699153,170.489224 C38.4473164,179.653963 49.1346045,186.84945 61.0346045,191.875402 C73.355226,197.079351 86.4427966,199.717997 99.9334746,199.717997 C113.424153,199.717997 126.511723,197.079351 138.832345,191.875402 C150.732345,186.84945 161.419633,179.653963 170.597316,170.489224 C179.774718,161.324767 186.980367,150.652553 192.013418,138.769337 C192.658616,137.246065 193.263983,135.710663 193.830367,134.164542 C193.999011,133.704175 194.157486,133.240705 194.319068,132.778082 C197.998446,122.253117 199.86709,111.231961 199.86709,99.9253315 C199.86709,95.1171509 199.524153,90.3614386 198.854379,85.672299" mask="url(#group-36-b)"/>
    </g>
    <polygon fill="#FFF" points="107.329 172.394 98.291 190.467 97.45 190.418 94.954 183.45 91.633 190.076 90.791 190.026 83.964 171.018 87.8 171.245 91.814 181.937 93.533 178.907 90.622 171.41 94.458 171.636 98.358 182.164 103.493 172.168"/>
    <path fill="#FFF" d="M112.263023 180.325416C112.95935 183.455176 115.895508 185.463639 118.824887 184.813992 121.753983 184.16378 123.562458 181.103413 122.86613 177.973935 122.170367 174.843893 119.234209 172.835712 116.304548 173.48536 113.375452 174.135571 111.566695 177.196502 112.263023 180.325416M126.352006 177.200451C127.502853 182.373371 124.494944 187.464203 119.652853 188.537828 114.811328 189.612299 109.927429 186.271819 108.777147 181.0989 107.626299 175.926262 110.634209 170.835148 115.476299 169.761241 120.317825 168.687052 125.201723 172.027532 126.352006 177.200451M131.139379 168.824288L137.723277 182.155176 134.609718 183.688322 126.382881 167.03134 132.476102 164.029365C135.056045 162.758561 138.261695 163.986488 139.622712 166.742764 140.620734 168.762511 140.365367 171.045162 139.128927 172.629083L145.741356 178.235007 142.427232 179.866883 136.216497 174.625134 134.573277 171.298477 135.774407 170.706939C136.641921 170.279295 136.967345 169.203413 136.509435 168.276756 136.05209 167.349817 134.986554 166.928942 134.119887 167.356305L131.139379 168.824288z"/>
    <polygon fill="#FFF" points="149.554 165.218 149.419 167.192 153.808 172.676 151.096 174.841 139.503 160.351 142.214 158.187 145.958 162.865 146.186 155.019 149.847 152.097 149.639 161.556 161.557 166.493 158.321 169.075"/>
    <path fill="#FFF" d="M163.824435,152.29134 C163.341102,152.633512 162.442797,153.276389 161.261158,153.593738 C159.623588,154.05213 158.026977,153.746347 156.600706,152.684852 C155.400141,151.806996 154.673023,150.643385 154.452684,149.316164 C154.153814,147.414894 155.01709,145.722934 155.579802,145.030973 C157.174435,143.070183 158.827542,142.592327 160.304379,142.163836 L160.973023,141.972017 L162.282345,145.36299 L161.562288,145.575966 C160.261441,145.956502 159.416525,146.196841 158.463136,147.369196 C158.322458,147.542116 157.919915,148.331678 158.02952,148.99543 C158.058898,149.210381 158.176412,149.528858 158.665678,149.894161 C159.42274,150.475825 160.225,150.329422 161.555226,149.366375 C161.721328,149.245924 161.856356,149.164118 161.991667,149.082031 C163.512571,148.178505 164.964266,147.696982 166.329802,147.656079 C167.716243,147.632384 168.981497,148.052412 170.010876,148.887391 C171.020198,149.705726 171.741667,150.961016 171.997881,152.285416 C172.304661,153.841693 171.948729,155.371735 170.963701,156.582454 C170.478955,157.178223 169.781497,157.951707 168.691384,158.662567 C167.293644,159.539577 165.697599,160.030973 163.897316,160.102059 L163.514831,156.538731 C166.298446,156.435487 167.596186,154.84 168.080367,154.244231 C168.987429,153.129422 168.193079,151.878646 167.822175,151.578505 C167.039972,150.943808 165.646751,151.185557 163.990537,152.171171 L163.923305,152.212073 L163.824435,152.29134 Z"/>
    <polygon fill="#FFF" points="165.525 129.588 167.095 126.496 183.662 134.875 182.093 137.968 175.182 134.472 172.28 140.194 179.192 143.689 177.623 146.781 161.055 138.402 162.624 135.31 168.967 138.517 171.869 132.796"/>
    <path fill="#FFF" d="M177.923333 123.095289C181.054972 123.798251 184.124746 122.000508 184.783503 119.077236 185.441695 116.154245 183.438305 113.216587 180.306384 112.513061 177.174181 111.809535 174.104124 113.607278 173.445932 116.530832 172.78774 119.454104 174.79113 122.391763 177.923333 123.095289M181.089718 109.033794C186.266554 110.196559 189.59904 115.082313 188.510621 119.914753 187.422486 124.746629 182.316271 127.737038 177.14 126.573992 171.962881 125.411509 168.630678 120.525755 169.718531 115.693879 170.807232 110.861439 175.912881 107.871312 181.089718 109.033794M179.232599 98.6787306C179.219887 97.7376869 178.386836 96.9565867 177.351808 96.9706911 176.317345 96.9845134 175.479209 97.7878984 175.491921 98.7289422L175.521017 100.882962 179.261412 100.833032 179.232599 98.6787306zM171.778079 98.7788717C171.739096 95.9069394 174.227797 93.5455853 177.304915 93.5035543 180.382316 93.4623695 182.90774 95.7568688 182.946158 98.628519L182.975537 100.783385 190.402938 100.682962 190.449831 104.149817 171.853785 104.399746 171.778079 98.7788717z"/>
    <polygon fill="#FFF" points="49.569 49.123 35.267 49.474 43.342 56.381 41.129 58.961 27.29 47.121 27.986 46.31 41.841 45.801 34.102 39.18 36.315 36.601 50.154 48.441"/>
    <path fill="#FFF" d="M41.5014124 27.6753456C41.0392655 27.1137094 40.470339 27.1100423 40.0200565 27.479859 39.5319209 27.879859 39.4248588 28.4378279 39.8870056 28.999464 40.299435 29.5010155 40.9511299 29.6048237 41.4389831 29.2045416 41.8892655 28.834725 41.9138418 28.176615 41.5014124 27.6753456M38.9110169 29.8003103C38.019774 28.7168124 38.1129944 27.2632158 39.1265537 26.431622 40.1214689 25.6152609 41.5861582 25.7910014 42.4774011 26.8744993 43.3683616 27.957433 43.2564972 29.4265444 42.2615819 30.2429055 41.2480226 31.0744993 39.8016949 30.8835261 38.9110169 29.8003103M58.2362147 28.2621157C59.0751977 27.7718477 59.3127684 26.6403949 58.7876271 25.7436389 58.2757627 24.8700141 57.1715254 24.5227645 56.3328249 25.0124683 55.4938418 25.5030183 55.2350847 26.6466008 55.7469492 27.5207898 56.2720904 28.4169817 57.3977966 28.7518195 58.2362147 28.2621157zM59.2170056 31.5690268C58.9048588 31.6609873 58.600904 31.7182511 58.3042938 31.7408181 57.670113 31.8107757 57.0458192 31.7546403 56.4322599 31.5715656 55.7969492 31.4014669 55.2147458 31.0796051 54.7031638 30.6869394 54.1655932 30.2494217 53.6983616 29.7402539 53.3438418 29.1357405 53.0025989 28.5529478 52.7867797 27.8968124 52.6684181 27.2141608 52.5627684 26.5540762 52.580565 25.911763 52.7429944 25.2753738 52.8839548 24.6516784 53.1274576 24.0587306 53.4994915 23.540536 53.8715254 23.0220592 54.350904 22.5915938 54.9172881 22.2607052 55.4833898 21.9300987 56.0938418 21.7233286 56.7288701 21.6533709 57.3633333 21.5834133 58.0006215 21.6623977 58.6144633 21.8446262 59.2489266 22.0150071 59.8184181 22.3145839 60.3429944 22.7295346 60.8808475 23.1673343 61.3480791 23.6765021 61.6896045 24.2592948 62.0438418 24.8638082 62.2593785 25.5196615 62.3780226 26.2025952 62.470113 26.8403949 61.7749153 36.2702962 61.7749153 36.2702962L67.3314124 33.0234697 68.8412994 35.5997743 58.5873446 41.5918759 59.2170056 31.5690268zM126.632458 128.513258L73.2347175 128.513258C70.2869774 128.510155 67.8979944 126.124542 67.894887 123.180959L67.894887 82.3002821 131.972288 82.3002821 131.972288 123.180959C131.968898 126.124542 129.580198 128.510155 126.632458 128.513258M73.2347175 71.6359661L126.632458 71.6359661C129.580198 71.6390691 131.968898 74.0246827 131.972288 76.9682652L131.972288 78.7454161 67.894887 78.7454161 67.894887 76.9682652C67.8979944 74.0246827 70.2869774 71.6390691 73.2347175 71.6359661M126.632458 68.0811001L73.2347175 68.0811001C68.3217232 68.0861777 64.3400847 72.0619182 64.335 76.9682652L64.335 123.180959C64.3400847 128.087024 68.3217232 132.063047 73.2347175 132.068124L126.632458 132.068124C131.545452 132.063047 135.526808 128.087024 135.532175 123.180959L135.532175 76.9682652C135.526808 72.0619182 131.545452 68.0861777 126.632458 68.0811001"/>
    <path fill="#FFF" d="M90.5124576 97.0404231C89.8172599 96.346488 88.6904237 96.346488 87.9955085 97.0404231L80.8757345 104.150155C80.1808192 104.84409 80.1808192 105.969337 80.8757345 106.663554L87.9955085 113.773286C88.6991808 114.458477 89.8262994 114.444372 90.5124576 113.74141 91.1864689 113.051142 91.1864689 111.950155 90.5124576 111.259887L84.6511582 105.406855 90.5124576 99.5538223C91.2073729 98.8598872 91.2073729 97.7346403 90.5124576 97.0404231M103.924463 89.4638364C102.981808 89.2189845 102.019096 89.7834415 101.773616 90.7244852 101.770791 90.7352045 101.768249 90.7462059 101.765706 90.7569252L94.6459322 119.195571C94.4077966 120.148463 94.9883051 121.113766 95.9425424 121.351566 96.8967797 121.589365 97.8634463 121.009676 98.1012994 120.056784L105.221073 91.6178561C105.458644 90.6655289 104.878136 89.701354 103.924463 89.4638364M111.871582 97.0404231C111.167627 96.3552327 110.040791 96.3693371 109.354633 97.072299 108.680621 97.762567 108.680621 98.8635543 109.354633 99.5538223L115.215932 105.406855 109.354633 111.259887C108.650678 111.945078 108.636554 113.070324 109.322712 113.773286 110.009153 114.475966 111.135989 114.490353 111.839661 113.80488 111.850395 113.794443 111.86113 113.784006 111.871582 113.773286L118.991356 106.663554C119.686271 105.969337 119.686271 104.84409 118.991356 104.150155L111.871582 97.0404231z"/>
  </g>
</svg>
