<svg xmlns="http://www.w3.org/2000/svg" xmlns:xlink="http://www.w3.org/1999/xlink" width="200" height="200" viewBox="0 0 200 200">
  <defs>
    <polygon id="group-40-a" points="0 .133 199.867 .133 199.867 199.718 0 199.718"/>
    <polygon id="group-40-c" points="0 199.867 199.867 199.867 199.867 .282 0 .282"/>
  </defs>
  <g fill="none" fill-rule="evenodd">
    <path fill="#FFF" d="M99.9335028,37.0594358 C83.0778531,37.0594358 67.230678,43.6140197 55.3120339,55.5161354 C43.3933898,67.417969 36.8292655,83.2427927 36.8292655,100.074669 C36.8292655,116.906544 43.3933898,132.731086 55.3120339,144.633202 C67.230678,156.535035 83.0778531,163.089619 99.9335028,163.089619 C116.789153,163.089619 132.636328,156.535035 144.554972,144.633202 C156.473616,132.731086 163.03774,116.906544 163.03774,100.074669 C163.03774,83.2427927 156.473616,67.417969 144.554972,55.5161354 C132.636328,43.6140197 116.789153,37.0594358 99.9335028,37.0594358 M99.9335028,164.500056 C82.700452,164.500056 66.4990395,157.798787 54.3134463,145.630381 C42.1278531,133.461975 35.4168362,117.283413 35.4168362,100.074669 C35.4168362,82.8659238 42.1278531,66.6870804 54.3134463,54.5189563 C66.4990395,42.3505501 82.700452,35.6489986 99.9335028,35.6489986 C117.166554,35.6489986 133.367966,42.3505501 145.553559,54.5189563 C157.739153,66.6870804 164.450169,82.8659238 164.450169,100.074669 C164.450169,117.283413 157.739153,133.461975 145.553559,145.630381 C133.367966,157.798787 117.166554,164.500056 99.9335028,164.500056"/>
    <g transform="translate(0 .15)">
      <mask id="group-40-b" fill="#fff">
        <use xlink:href="#group-40-a"/>
      </mask>
      <path fill="#FFF" d="M193.161723,131.872581 C193.002119,132.338872 192.843927,132.805726 192.67726,133.269196 C187.832627,146.73323 180.030085,159.075402 169.598446,169.492045 C150.990254,188.073992 126.249294,198.30756 99.9334746,198.30756 C73.6176554,198.30756 48.8766949,188.073992 30.2685028,169.492045 C19.375565,158.614753 11.3529661,145.636474 6.56850282,131.474838 C6.41257062,131.013625 6.26087571,130.550719 6.11200565,130.086685 C3.02217514,120.466093 1.41257062,110.319972 1.41257062,99.9253315 C1.41257062,95.0212412 1.77019774,90.172158 2.47161017,85.4071368 C2.55635593,84.8322426 2.65127119,84.2598872 2.74590395,83.6875317 C3.32189266,80.204598 4.07867232,76.7682087 5.01963277,73.391622 C5.17923729,72.8189845 5.34618644,72.2486037 5.51624294,71.6793512 C6.62612994,67.9620028 7.95748588,64.320536 9.50070621,60.7687729 C9.7450565,60.2065726 9.99533898,59.6471932 10.2501412,59.0897884 C15.0769774,48.5323836 21.804661,38.8105219 30.2685028,30.3586178 C48.8766949,11.7766714 73.6176554,1.54310296 99.9334746,1.54310296 C126.249294,1.54310296 150.990254,11.7766714 169.598446,30.3586178 C178.059181,38.8071368 184.784887,48.5250494 189.611441,59.0779408 C189.867655,59.6378843 190.119068,60.1998025 190.364266,60.7642595 C191.913701,64.3295628 193.249576,67.9854161 194.362006,71.717433 C194.53178,72.2869676 194.699011,72.8570663 194.858616,73.4299859 C195.802684,76.8232158 196.560028,80.2770945 197.135452,83.7775176 C197.230085,84.3532581 197.324435,84.9289986 197.408898,85.5069958 C198.100706,90.240141 198.454661,95.0553738 198.454661,99.9253315 C198.454661,110.965388 196.639124,121.725331 193.161723,131.872581 M198.854379,85.672299 C198.771328,85.0911989 198.682062,84.5115092 198.588842,83.9326657 C198.02274,80.4178561 197.269633,76.9422567 196.328107,73.5132017 C196.169633,72.9363329 196.004661,72.3608745 195.835734,71.7865444 C194.769068,68.1620028 193.499576,64.5896474 192.013418,61.0813258 C191.970763,60.9806206 191.925,60.8813258 191.88178,60.7809027 C191.638559,60.2113681 191.390819,59.6440903 191.137429,59.0801975 C186.157768,47.9983921 179.256073,38.0079831 170.597316,29.3614386 C161.419633,20.1966996 150.732345,13.0014951 138.832345,7.97526093 C126.511723,2.77131171 113.424153,0.132665726 99.9334746,0.132665726 C86.4427966,0.132665726 73.355226,2.77131171 61.0346045,7.97526093 C49.1346045,13.0014951 38.4473164,20.1966996 29.2699153,29.3614386 C20.6128531,38.0062906 13.7125706,47.9935966 8.7329096,59.0725811 C8.48008475,59.6353456 8.2329096,60.2014951 7.98997175,60.7699013 C7.94533898,60.8742736 7.89788136,60.9769535 7.85353107,61.0813258 C6.37471751,64.5727221 5.11031073,68.1281523 4.04675141,71.7346403 C3.87867232,72.3050212 3.71398305,72.8762482 3.55607345,73.4491678 C2.61652542,76.862708 1.86398305,80.3227927 1.29618644,83.8220874 C1.2029661,84.3972638 1.11257062,84.9732863 1.02951977,85.5507193 C0.347881356,90.2793512 0.000141242938,95.0756841 0.000141242938,99.9253315 C0.000141242938,110.554669 1.65211864,120.931819 4.90607345,130.881608 C5.05748588,131.344231 5.21031073,131.806855 5.36850282,132.268068 C6.12048023,134.456502 6.94533898,136.62519 7.85353107,138.769337 C12.8868644,150.652553 20.0922316,161.324767 29.2699153,170.489224 C38.4473164,179.653963 49.1346045,186.84945 61.0346045,191.875402 C73.355226,197.079351 86.4427966,199.717997 99.9334746,199.717997 C113.424153,199.717997 126.511723,197.079351 138.832345,191.875402 C150.732345,186.84945 161.419633,179.653963 170.597316,170.489224 C179.774718,161.324767 186.980367,150.652553 192.013418,138.769337 C192.658616,137.246065 193.263983,135.710663 193.830367,134.164542 C193.999011,133.704175 194.157486,133.240705 194.319068,132.778082 C197.998446,122.253117 199.86709,111.231961 199.86709,99.9253315 C199.86709,95.1171509 199.524153,90.3614386 198.854379,85.672299" mask="url(#group-40-b)"/>
    </g>
    <polygon fill="#FFF" points="82.369 189.563 85.188 178.457 79.116 181.961 75.448 175.991 72.629 187.097 69.237 186.238 73.844 168.09 75.007 168.385 80.358 177.068 89.181 171.974 90.368 172.274 85.761 190.422"/>
    <polygon fill="#FFF" points="92.484 190.8 93.633 172.14 97.126 172.354 95.976 191.014"/>
    <path fill="#FFF" d="M112.580056 176.047814C108.96452 174.045275 104.082316 176.73103 104.579492 181.726798 105.100113 186.961777 110.706328 188.525388 113.725254 185.541749L116.235989 188.056841C114.80661 189.594217 112.876384 190.644711 110.687684 190.862482 105.712825 191.356135 101.227797 187.427221 100.698983 182.11213 100.170169 176.797038 103.793898 172.063047 108.768757 171.569111 110.85774 171.361495 112.874689 171.939774 114.543616 173.061918L112.580056 176.047814zM121.691864 172.991114L126.446949 187.200423 123.128305 188.307616 117.187345 170.55275 123.681695 168.385472C126.431412 167.468124 129.465311 169.130183 130.448079 172.068688 131.168418 174.221298 130.602034 176.465585 129.151186 177.879126L134.988757 184.377856 131.456836 185.556417 125.970113 179.47574 124.78339 175.929901 126.063898 175.502539C126.98791 175.194217 127.460226 174.163752 127.129435 173.175882 126.798927 172.188011 125.792994 171.62299 124.868136 171.931312L121.691864 172.991114zM138.09839 172.523357C139.795 175.274556 143.255169 176.220113 145.829463 174.636192 148.404605 173.052835 149.115904 169.541693 147.418729 166.790494 145.721554 164.039013 142.261949 163.093173 139.687373 164.677377 137.112514 166.261016 136.401215 169.771876 138.09839 172.523357M150.483418 164.905585C153.287938 169.453117 152.105452 175.292891 147.84952 177.910945 143.593305 180.528434 137.838785 178.955797 135.033701 174.408265 132.229181 169.860451 133.411667 164.020395 137.667881 161.402906 141.923814 158.784852 147.678333 160.358054 150.483418 164.905585M162.518955 149.718646C163.114153 148.979577 162.969237 147.838251 162.156525 147.185783 161.343249 146.533032 160.175169 146.619915 159.580537 147.359267L158.217542 149.051227 161.156243 151.410889 162.518955 149.718646zM156.662458 145.015966C158.479124 142.759549 161.931384 142.521185 164.349181 144.462511 166.766695 146.403836 167.253418 149.805529 165.437034 152.061664L164.074322 153.753907 169.909915 158.439944 167.716695 161.162934 153.10709 149.431481 156.662458 145.015966zM166.583531 136.921382L179.938051 143.750719 178.343136 146.860733 161.65613 138.327306 164.777599 132.240705C166.099068 129.663836 169.431554 128.732666 172.192853 130.144231 174.216299 131.178928 175.384096 133.178082 175.338333 135.201495L184.063475 135.765952 182.365734 139.075684 174.184096 138.564824 170.85161 136.860733 171.466864 135.661298C171.910932 134.795007 171.526469 133.728999 170.597938 133.253963 169.669972 132.77921 168.554435 133.078787 168.110085 133.945078L166.583531 136.921382zM186.279774 129.911904L189.361695 118.748011 185.752373 117.753653 182.671017 128.918392 186.279774 129.911904zM178.777797 127.846178L181.348983 118.534471 177.739096 117.540677 175.16904 126.851819 178.777797 127.846178zM171.310282 113.698928L168.208305 124.934753 171.817345 125.929111 174.919605 114.692722 171.310282 113.698928zM166.565932 120.935882L164.032881 116.043921 166.910847 113.859718 168.073277 119.797659 166.565932 120.935882z"/>
    <polygon fill="#FFF" points="190.678 111.862 189.609 111.817 175.858 101.564 175.514 109.644 172.014 109.495 172.622 95.181 173.718 95.227 187.468 105.505 187.857 96.378 191.33 96.525"/>
    <polygon fill="#FFF" points="50.633 49.123 36.332 49.474 44.406 56.381 42.193 58.961 28.354 47.121 29.05 46.31 42.905 45.801 35.166 39.18 37.379 36.601 51.218 48.441"/>
    <path fill="#FFF" d="M42.5656215 27.6750353C42.1034746 27.1136812 41.534548 27.109732 41.0842655 27.4795487 40.5961299 27.8801128 40.4890678 28.4375176 40.9512147 28.9994358 41.3636441 29.5009873 42.015339 29.6047955 42.5031921 29.2045134 42.9534746 28.8346968 42.9780508 28.1763047 42.5656215 27.6750353M39.975226 29.8002821C39.0839831 28.7167842 39.1772034 27.2631876 40.1907627 26.4315938 41.185678 25.6152327 42.6503672 25.7909732 43.5416102 26.8744711 44.4325706 27.9574048 44.3207062 29.4265162 43.325791 30.2428773 42.3122316 31.0744711 40.865904 30.8834979 39.975226 29.8002821M53.0479379 30.2771791C52.7072599 29.663921 52.4767514 29.0453032 52.3634746 28.3860649 52.2575424 27.6926939 52.2623446 26.9933992 52.4033051 26.3335966 52.565452 25.660536 52.8089548 25.0297884 53.195678 24.4946685 53.5903107 23.9248519 54.0931356 23.4419182 54.6761864 23.0918477 55.2589548 22.7420592 55.9225141 22.5256982 56.6103672 22.4453032 57.2651695 22.3555994 57.9372034 22.4368406 58.6081073 22.6097602 59.2581073 22.7950917 59.8787288 23.1194922 60.4431356 23.5383921 61.0205367 23.9792948 61.4860734 24.5175176 61.8609322 25.1409309 62.2493503 25.7857828 62.5064124 26.4492525 62.624774 27.1654725 62.7307062 27.8588434 62.7264689 28.5578561 62.585791 29.2182228 62.5575424 29.2656135 62.5637571 29.3225952 62.5355085 29.3697038 62.6038701 29.3891678 62.6377684 29.3990409 62.6925706 29.39622 63.3558475 29.6038364 63.9629096 29.905952 64.5273164 30.3248519 65.1047175 30.7660367 65.5835311 31.3262623 65.9581073 31.9493935 66.3332486 32.5725247 66.6041525 33.2579972 66.7225141 33.973653 66.8281638 34.6673061 66.8106497 35.3443159 66.6826836 36.0269676 66.5205367 36.6997461 66.2634746 37.3082087 65.8908757 37.8653315 65.4965254 38.4351481 64.9804237 38.8963611 64.3976554 39.2458674 63.8146045 39.5956559 63.1646045 39.8345839 62.475339 39.9146968 61.8078249 39.9821157 61.1485028 39.9231594 60.4778814 39.7502398 59.814322 39.5426234 59.2075424 39.2405078 58.6437006 38.8216079 58.1140395 38.4131453 57.6620621 37.8966432 57.2928531 37.3307757L59.6872034 35.8938223C60.4194068 36.9688575 61.795678 37.3242877 62.8572599 36.6870522 63.9606497 36.0249929 64.2727966 34.5657546 63.5631921 33.3860649 62.8804237 32.2515092 61.445113 31.7499577 60.4035876 32.3747814L58.8211017 33.3245698 57.2812712 30.7651904 58.9677119 29.7533427C59.8631921 29.2159661 60.1349435 27.6904372 59.4657345 26.5776023 58.7694068 25.4204795 57.3191243 24.9886037 56.215452 25.650945 55.1535876 26.2878984 54.8355085 27.6901551 55.4425706 28.8402257L53.0479379 30.2771791z"/>
    <mask id="group-40-d" fill="#fff">
      <use xlink:href="#group-40-c"/>
    </mask>
    <path fill="#FFF" d="M68.3423729,113.292807 L131.59435,113.292807 L131.59435,67.3052186 L68.3423729,67.3052186 L68.3423729,113.292807 Z M133.171186,116.442031 L66.7655367,116.442031 C65.8946328,116.442031 65.1887006,115.737659 65.1887006,114.867419 L65.1887006,65.7303244 C65.1887006,64.8606488 65.8946328,64.1557123 66.7655367,64.1557123 L133.171186,64.1557123 C134.04209,64.1557123 134.748023,64.8606488 134.748023,65.7303244 L134.748023,114.867419 C134.748023,115.737659 134.04209,116.442031 133.171186,116.442031 Z" mask="url(#group-40-d)"/>
    <path fill="#FFF" d="M137.961102 116.441975L63.334548 116.441975C62.4636441 116.441975 61.7577119 115.737602 61.7577119 114.867362 61.7577119 113.997687 62.4636441 113.29275 63.334548 113.29275L137.961102 113.29275C138.832006 113.29275 139.537938 113.997687 139.537938 114.867362 139.537938 115.737602 138.832006 116.441975 137.961102 116.441975M137.961102 67.3049365L63.334548 67.3049365C62.4636441 67.3049365 61.7577119 66.6 61.7577119 65.7303244 61.7577119 64.8606488 62.4636441 64.1557123 63.334548 64.1557123L137.961102 64.1557123C138.832006 64.1557123 139.537938 64.8606488 139.537938 65.7303244 139.537938 66.6 138.832006 67.3049365 137.961102 67.3049365" mask="url(#group-40-d)"/>
    <path fill="#FFF" d="M126.297797 142.888068C125.795819 142.888068 125.302881 142.649704 124.997232 142.205416L106.77774 115.750127C106.284237 115.033343 106.465876 114.053089 107.183672 113.561128 107.902034 113.068886 108.882825 113.249704 109.375763 113.966206L127.595254 140.421495C128.088757 141.137997 127.907119 142.117687 127.190169 142.61134 126.916723 142.798928 126.605706 142.888068 126.297797 142.888068M74.9986158 142.888068C74.6907062 142.888068 74.3796893 142.798928 74.1070904 142.61134 73.3892938 142.117687 73.2076554 141.137997 73.7011582 140.421495L91.9200847 113.966206C92.4141525 113.249704 93.3966384 113.068886 94.1118927 113.561128 94.8296893 114.053089 95.0113277 115.033343 94.5178249 115.750127L76.2991808 142.205416C75.9935311 142.649704 75.5005932 142.888068 74.9986158 142.888068" mask="url(#group-40-d)"/>
    <path fill="#FFF" d="M108.161864,113.554133 L107.980791,113.554133 L93.3163842,113.554133 L93.1355932,113.554133 L68.3166667,113.554133 L68.3166667,67.5738787 L131.593503,67.5738787 L131.593503,113.554133 L108.161864,113.554133 Z M137.961017,113.554133 L134.700847,113.554133 L134.700847,67.5738787 L137.961017,67.5738787 C138.831921,67.5738787 139.537853,66.8920733 139.537853,66.0223977 C139.537853,65.1527221 138.831921,64.4709168 137.961017,64.4709168 L133.171186,64.4709168 L66.7655367,64.4709168 L63.3344633,64.4709168 C62.4638418,64.4709168 61.7576271,65.1527221 61.7576271,66.0223977 C61.7576271,66.8920733 62.4638418,67.5738787 63.3344633,67.5738787 L65.209322,67.5738787 L65.209322,113.554133 L63.3344633,113.554133 C62.4638418,113.554133 61.7576271,114.235938 61.7576271,115.105614 C61.7576271,115.975853 62.4638418,116.657094 63.3344633,116.657094 L66.7655367,116.657094 L90.2149718,116.657094 L73.7011299,140.670071 C73.2076271,141.386855 73.389548,142.383188 74.1070621,142.876559 C74.379661,143.064147 74.690678,143.161749 74.9985876,143.161749 C75.500565,143.161749 75.9935028,142.894048 76.2991525,142.44976 L94.0412429,116.657094 L107.25452,116.657094 L124.997458,142.453992 C125.303107,142.898279 125.795763,143.153286 126.29774,143.153286 C126.605932,143.153286 126.916949,143.072609 127.190113,142.885021 C127.907062,142.391368 128.088701,141.382623 127.595198,140.666121 L111.080791,116.657094 L133.171186,116.657094 L137.961017,116.657094 C138.831921,116.657094 139.537853,115.975853 139.537853,115.105614 C139.537853,114.235938 138.831921,113.554133 137.961017,113.554133 Z" mask="url(#group-40-d)"/>
    <path fill="#FFF" d="M88.8316667 80.9523836L79.6599153 90.1103526C79.3641525 90.4056982 79.1980508 90.8062623 79.1980508 91.2237518 79.1980508 91.6412412 79.3641525 92.0418054 79.6599153 92.3368688L88.1231921 100.788491C88.4313842 101.095966 88.834774 101.249704 89.2381638 101.249704 89.6415537 101.249704 90.045226 101.095966 90.3531356 100.788491 90.9689548 100.173258 90.9689548 99.1769252 90.3531356 98.5616925L83.004548 91.2237518 91.0613277 83.1788999C91.6774294 82.5639492 91.6774294 81.5673343 91.0613277 80.9523836 90.4455085 80.3371509 89.4477684 80.3371509 88.8316667 80.9523836M108.885989 80.9523836C108.269887 80.3371509 107.272147 80.3371509 106.656328 80.9523836 106.040226 81.5673343 106.040226 82.5639492 106.656328 83.1788999L114.004633 90.5171227 105.948701 98.5616925C105.332599 99.1769252 105.332599 100.173258 105.948701 100.788491 106.25661 101.095966 106.66 101.249704 107.06339 101.249704 107.467062 101.249704 107.870452 101.095966 108.178362 100.788491L117.349266 91.6305219C117.965367 91.0152891 117.965367 90.0189563 117.349266 89.4037236L108.885989 80.9523836zM104.478757 76.9680395C103.674802 76.624457 102.751638 77.0001975 102.410678 77.7999154L91.7683051 102.768886C91.4273446 103.56945 91.7999435 104.493568 92.6013559 104.83433 92.8030508 104.920367 93.0126554 104.960987 93.2180226 104.960987 93.8310169 104.960987 94.4146328 104.601326 94.669435 104.002172L105.311808 79.0332017C105.653051 78.2329196 105.280169 77.3088011 104.478757 76.9680395" mask="url(#group-40-d)"/>
  </g>
</svg>
