<svg xmlns="http://www.w3.org/2000/svg" xmlns:xlink="http://www.w3.org/1999/xlink" width="80" height="95" viewBox="0 0 80 95">
  <defs>
    <polygon id="logo-header-a" points="0 94.722 79.891 94.722 79.891 .001 0 .001"/>
  </defs>
  <g fill="none" fill-rule="evenodd">
    <polygon fill="#FFF" points="0 54.643 0 72.552 9.555 72.552 9.555 68.996 3.336 68.996 3.336 54.643"/>
    <path fill="#FFF" d="M13.3666436,72.5772222 L24.4229758,72.5772222 L24.4229758,68.9955556 L13.3666436,68.9955556 L13.3666436,72.5772222 Z M13.3666436,65.1322222 L22.5879585,65.1322222 L22.5879585,61.5505556 L13.3666436,61.5505556 L13.3666436,65.1322222 Z M13.3666436,58.2247222 L24.4943945,58.2247222 L24.4943945,54.6430556 L13.3666436,54.6430556 L13.3666436,58.2247222 Z"/>
    <g transform="translate(0 .276)">
      <path fill="#FFF" d="M42.4824637 61.5555278C43.3879308 61.5555278 44.1505606 60.7624722 44.1505606 59.7646944 44.1505606 58.7669167 43.3879308 57.9483056 42.4824637 57.9483056L40.4093841 57.9483056 40.4093841 61.5555278 42.4824637 61.5555278zM42.4824637 54.3663611C45.2464775 54.3663611 47.4864775 56.7969167 47.4864775 59.7646944 47.4864775 62.7324722 45.2464775 65.1371944 42.4824637 65.1371944L40.4093841 65.1371944 40.4093841 72.3008056 37.0734671 72.3008056 37.0734671 54.3663611 42.4824637 54.3663611zM63.8796401 65.6746111C63.8796401 69.5121111 60.9725121 72.6079444 57.4220623 72.6079444 53.8478062 72.6079444 50.9647612 69.5121111 50.940955 65.7001667L50.940955 54.3665556 54.276872 54.3665556 54.276872 65.6746111C54.276872 66.5701667 54.610436 67.4143333 55.2058685 68.0540556 55.8018547 68.6935 56.5880138 69.026 57.4220623 69.026 58.2558339 69.026 59.0184637 68.6935 59.6144498 68.0540556 60.2098824 67.4143333 60.5196401 66.5957222 60.5434464 65.7001667L60.5196401 65.7001667 60.5196401 54.3665556 63.8558339 54.3665556 63.8558339 65.6746111 63.8796401 65.6746111z"/>
      <polygon fill="#FFF" points="79.891 54.366 74.458 65.726 74.458 72.301 71.122 72.301 71.122 65.726 65.666 54.366 69.359 54.366 72.79 61.121 76.198 54.366"/>
      <path fill="#FFF" d="M25.3393772,90.82725 C28.103391,90.82725 30.3431142,88.3966944 30.3431142,85.4291944 C30.3431142,82.4614167 28.103391,80.0564167 25.3393772,80.0564167 L23.9572318,80.0564167 L23.9572318,90.82725 L25.3393772,90.82725 Z M25.3393772,76.4744722 C26.4591003,76.4744722 27.5552941,76.70475 28.5797924,77.1653056 C29.5804844,77.6258611 30.4624221,78.2655833 31.2247751,79.0839167 C32.0112111,79.9283611 32.6069204,80.8750278 33.0119031,81.9494722 C33.4647751,83.0494722 33.6790311,84.2264167 33.6790311,85.4291944 C33.6790311,86.65725 33.4647751,87.8339167 33.0119031,88.9341944 C32.6069204,90.0086389 32.0112111,90.9553056 31.2247751,91.7739167 C30.4624221,92.5925278 29.5804844,93.2578056 28.5797924,93.6928056 C27.5552941,94.1789167 26.4591003,94.4089167 25.3393772,94.4089167 L21.9793772,94.4089167 L21.9793772,94.3836389 L20.6213149,94.3836389 L20.6213149,76.4744722 L25.3393772,76.4744722 Z"/>
      <mask id="logo-header-b" fill="#fff">
        <use xlink:href="#logo-header-a"/>
      </mask>
      <path fill="#FFF" d="M37.4906574,94.4088889 L48.5469896,94.4088889 L48.5469896,90.8272222 L37.4906574,90.8272222 L37.4906574,94.4088889 Z M37.4906574,86.9641667 L46.7119723,86.9641667 L46.7119723,83.3825 L37.4906574,83.3825 L37.4906574,86.9641667 Z M37.4909343,80.0563889 L48.6186851,80.0563889 L48.6186851,76.4747222 L37.4909343,76.4747222 L37.4909343,80.0563889 Z" mask="url(#logo-header-b)"/>
      <polygon fill="#FFF" points="59.149 94.409 51.596 76.475 55.289 76.475 59.65 86.657 63.986 76.475 67.68 76.475 60.15 94.409" mask="url(#logo-header-b)"/>
      <path fill="#04A175" d="M18.2808858,40.3394167 L12.9784637,40.3394167 C12.3276678,40.3394167 11.8003322,39.8099722 11.8003322,39.1569167 L11.8003322,1.38219444 C11.8003322,0.729138889 12.3276678,0.199694444 12.9784637,0.199694444 L18.2808858,0.199694444 C18.9316817,0.199694444 19.4592941,0.729138889 19.4592941,1.38219444 L19.4592941,39.1569167 C19.4592941,39.8099722 18.9316817,40.3394167 18.2808858,40.3394167" mask="url(#logo-header-b)"/>
      <path stroke="#04A175" stroke-linecap="round" stroke-linejoin="round" stroke-width=".742" d="M18.2808858,40.3394167 L12.9784637,40.3394167 C12.3276678,40.3394167 11.8003322,39.8099722 11.8003322,39.1569167 L11.8003322,1.38219444 C11.8003322,0.729138889 12.3276678,0.199694444 12.9784637,0.199694444 L18.2808858,0.199694444 C18.9316817,0.199694444 19.4592941,0.729138889 19.4592941,1.38219444 L19.4592941,39.1569167 C19.4592941,39.8099722 18.9316817,40.3394167 18.2808858,40.3394167 Z" mask="url(#logo-header-b)"/>
      <path fill="#04A175" d="M64.004872.00138888889L33.532346.00138888889C30.7868789.00138888889 28.5609965 2.23472222 28.5609965 4.98972222L28.5609965 35.5686111C28.5609965 38.3236111 30.7868789 40.5569444 33.532346 40.5569444L40.5377439 40.5569444C40.1601661 40.4269444 39.9104775 40.0777778 39.9104775 39.61L39.9104775 34.1680556 38.6039031 34.1680556C36.8120692 34.1680556 35.4814118 32.7547222 35.4814118 30.9566667L35.4814118 9.5825C35.4814118 7.78444444 36.8120692 6.39027778 38.6039031 6.39027778L59.1312388 6.39027778C60.9230727 6.39027778 62.3326228 7.78444444 62.3326228 9.5825L62.3326228 30.9566667C62.3326228 32.7547222 60.9230727 34.1680556 59.1312388 34.1680556L48.8200969 34.1680556 41.4999585 40.355C41.4003045 40.4386111 41.292346 40.5183333 41.1816194 40.5569444L64.004872 40.5569444C66.7503391 40.5569444 68.9762215 38.3236111 68.9762215 35.5686111L68.9762215 4.98972222C68.9762215 2.23472222 66.7503391.00138888889 64.004872.00138888889M14.9665329 92.5153889C14.9665329 93.6012222 14.089301 94.4812222 13.0075017 94.4812222 11.9254256 94.4812222 11.0481938 93.6012222 11.0481938 92.5153889 11.0481938 91.4295556 11.9254256 90.5495556 13.0075017 90.5495556 14.089301 90.5495556 14.9665329 91.4295556 14.9665329 92.5153889" mask="url(#logo-header-b)"/>
      <path stroke="#04A175" stroke-linecap="round" stroke-linejoin="round" stroke-width="1.735" d="M14.9665329,92.5153889 C14.9665329,93.6012222 14.089301,94.4812222 13.0075017,94.4812222 C11.9254256,94.4812222 11.0481938,93.6012222 11.0481938,92.5153889 C11.0481938,91.4295556 11.9254256,90.5495556 13.0075017,90.5495556 C14.089301,90.5495556 14.9665329,91.4295556 14.9665329,92.5153889 Z" mask="url(#logo-header-b)"/>
    </g>
  </g>
</svg>
